<svg xmlns="http://www.w3.org/2000/svg" xmlns:xlink="http://www.w3.org/1999/xlink" width="61.553" height="51.891" viewBox="0 0 61.553 51.891"><defs><style>.a{fill:none;}.b{clip-path:url(#a);}.c{fill:#ffdba3;}</style><clipPath id="a"><rect class="a" width="61.553" height="51.891"/></clipPath></defs><g transform="translate(0 0)"><g class="b" transform="translate(0 0)"><path class="c" d="M42.163,60.535H19.184C14,60.535,9.435,57.476,8.093,53.1L0,26.7a5.177,5.177,0,0,1,6.467,3.433l6.576,21.45c.67,2.189,3.253,3.776,6.141,3.776H42.163c2.87,0,5.45-1.577,6.133-3.748L55.061,30.1a5.178,5.178,0,0,1,6.492-3.386L53.235,53.162c-1.366,4.341-5.918,7.373-11.072,7.373" transform="translate(0 -8.644)"/><path class="c" d="M23.3,14.068h0a2.589,2.589,0,0,1-.834-3.565l5.762-9.279a2.589,2.589,0,0,1,4.4,2.731l-5.762,9.279a2.59,2.59,0,0,1-3.566.834" transform="translate(-7.209 0)"/><path class="c" d="M59.239,13.234,53.478,3.955a2.589,2.589,0,1,1,4.4-2.731L63.638,10.5a2.589,2.589,0,1,1-4.4,2.731" transform="translate(-17.336 0)"/><rect class="c" width="51.878" height="2.071" transform="translate(4.532 25.374) rotate(-0.708)"/><rect class="c" width="44.49" height="2.071" transform="translate(8.946 37.006) rotate(-0.335)"/><path class="c" d="M31.633,57.886l-3.64-30.817a1.035,1.035,0,1,1,2.056-.243l3.64,30.817Z" transform="translate(-9.139 -8.462)"/><path class="c" d="M57.01,57.886l-2.057-.242,3.64-30.817a1.036,1.036,0,0,1,2.057.243Z" transform="translate(-17.945 -8.462)"/></g></g></svg>