<svg xmlns="http://www.w3.org/2000/svg" xmlns:xlink="http://www.w3.org/1999/xlink" width="158.006" height="207.342" viewBox="0 0 158.006 207.342"><defs><style>.a{fill:none;}.b{clip-path:url(#a);}.c{fill:#31a175;}</style><clipPath id="a"><rect class="a" width="158.006" height="207.342"/></clipPath></defs><g class="b"><path class="c" d="M107.484,207.342a67.817,67.817,0,0,1-8.97-.594c-4.285-.572-8.129-1.24-11.489-3.5a.6.6,0,0,1-.191.124.565.565,0,0,1-.139.035c-.926.138-2.076.353-3.276.578-1.478.275-3.007.562-4.324.745a51.013,51.013,0,0,1-7.922.653,87.906,87.906,0,0,1-16.129-1.731.582.582,0,0,1-.332.283c-.864.29-1.588.543-2.217.762a15.655,15.655,0,0,1-6.524,1.3c-1.928-.008-3.88-.11-5.769-.207-.951-.05-1.9-.1-2.854-.137a22.011,22.011,0,0,1-3.41-.361c-2.924-.588-4.067-1-6.2-2.7-4.771,4.069-11.709,3.888-16.564,3.385l-.361-.037c-3.485-.356-8.258-.844-8.384-4.583C.664,149.1-.146,96.1.021,43.822a.584.584,0,0,1,.172-.412c4.8-4.771,9.519-6.91,14.433-6.547,5.433.4,10.488,4.247,13.635,7.9L27,14.539a.584.584,0,0,1,.216-.477c4.748-3.843,11.581-3.642,17.073-3.478,3.436.1,7.282.446,9.443,3.253a.583.583,0,0,1,.121.376q-.27,8.063-.423,16.07a31.693,31.693,0,0,1,8.452-4.033,28.357,28.357,0,0,1,6.98-.755,27.684,27.684,0,0,1,7.535.761,34.174,34.174,0,0,1,7.4,3.335,14.265,14.265,0,0,1,3.05,2.043.15.15,0,0,1,.02.019l0,0a.589.589,0,0,1,.114.172h0a.584.584,0,0,1,.047.218v.015Q87,43.328,86.974,54.525a76.287,76.287,0,0,1,8.812-2.955,42.1,42.1,0,0,1,16.3-.793,76.539,76.539,0,0,1,10.835,2.67q3.907,1.182,7.8,2.423a403.983,403.983,0,0,1-.2-53.162.582.582,0,0,1,.383-.515,35.909,35.909,0,0,1,24.281-.156.584.584,0,0,1,.389.532c.318,10.633.542,22.023.725,36.932.06,4.883.286,9.892.5,14.736.244,5.4.5,10.981.519,16.434.036,8.068-.025,16.477-.187,25.71-.095,5.435.075,10.968.239,16.32.107,3.486.217,7.09.255,10.638.069,6.6-.053,13.3-.169,19.787-.051,2.885-.1,5.77-.14,8.657-.063,5.035.111,10.194.279,15.183.09,2.655.18,5.3.236,7.944.244,11.508.231,20.957-.042,29.74a.585.585,0,0,1-.208.43c-2.15,1.8-4.75,1.881-7.264,1.962a61.365,61.365,0,0,1-10.338-.287,22.8,22.8,0,0,1-9.568-3.363,68.438,68.438,0,0,1-22.928,3.953m-20.223-5.351c3.248,2.352,7.091,3.023,11.407,3.6a67.251,67.251,0,0,0,31.28-3.274c-.537-21.555-.462-44.3-.329-67.655.16-28.1.537-53.469,1.156-77.546q-4.085-1.308-8.187-2.549a75.889,75.889,0,0,0-10.671-2.632,40.87,40.87,0,0,0-15.848.77,78.366,78.366,0,0,0-9.1,3.075q-.025,11.3-.042,22.575c-.027,15.478-.054,30.954-.106,46.549-.061,18.1.106,34.911.283,52.712.047,4.7.093,9.444.137,14.269.008.929.027,1.885.044,2.846.046,2.489.093,5.051-.026,7.262m43.86.468a21.745,21.745,0,0,0,9.018,3.138,59.766,59.766,0,0,0,10.142.277c2.336-.076,4.547-.147,6.352-1.532.264-8.684.274-18.039.033-29.408-.055-2.636-.145-5.281-.235-7.93-.169-5-.344-10.175-.28-15.237.036-2.888.089-5.776.14-8.663.117-6.476.238-13.172.169-19.753-.036-3.537-.147-7.135-.254-10.615-.165-5.365-.334-10.914-.239-16.377.162-9.223.223-17.625.187-25.683-.023-5.429-.276-11-.518-16.388-.219-4.853-.446-9.87-.505-14.773-.181-14.713-.4-26-.713-36.509a34.75,34.75,0,0,0-22.753.154,400.237,400.237,0,0,0,.288,53.473.71.71,0,0,1,0,.086c-.625,24.2-1.005,49.693-1.166,77.948-.133,23.4-.209,46.2.334,67.792M1.187,44.069c-.162,52.183.647,105.085,2.406,157.247.085,2.516,3.372,3.056,7.337,3.462l.363.036c7.429.774,12.48-.263,15.85-3.257,1.638-44.885,2.01-94.112,1.171-154.875-3.07-4.051-8.478-8.261-13.775-8.655C10.033,37.7,5.671,39.67,1.187,44.069M28.312,201.556a10.678,10.678,0,0,0,5.858,2.588,20.731,20.731,0,0,0,3.225.34c.956.037,1.912.088,2.868.137,1.875.1,3.813.2,5.713.205,2.607.021,3.471-.3,6.134-1.232.5-.176,1.069-.374,1.717-.593a.569.569,0,0,1,.008-.2.59.59,0,0,1,.1-.221c-.126-9.637-.2-19.415-.277-28.881-.131-16.753-.266-34.075-.681-51.108-.5-20.75-.963-42.349-.97-64.485-4.057-.919-7.275-1.536-11.275-1.2a41.253,41.253,0,0,0-11.091,2.225c.625,55.1.2,100.641-1.327,142.424m26.787.915a86.685,86.685,0,0,0,16.091,1.744,50.471,50.471,0,0,0,7.744-.641c1.291-.181,2.805-.463,4.27-.738,1.028-.191,2.018-.376,2.867-.514.147-2.251.1-4.953.048-7.573-.018-.965-.036-1.925-.044-2.859-.043-4.824-.09-9.568-.137-14.267-.176-17.8-.343-34.62-.283-52.726.053-15.6.079-31.071.106-46.547.026-15.306.053-30.613.1-46.035a14.494,14.494,0,0,0-2.63-1.7,33.3,33.3,0,0,0-7.148-3.231,26.673,26.673,0,0,0-7.219-.72,27.263,27.263,0,0,0-6.692.717A33.062,33.062,0,0,0,53.4,31.674c-.578,31.375.037,61.96.741,90.891.414,17.041.55,34.369.681,51.127.074,9.433.149,19.177.275,28.78M29.6,55.623q.014,1.14.027,2.273a42.861,42.861,0,0,1,11.009-2.153,35.652,35.652,0,0,1,11.372,1.169c0-.742,0-1.481,0-2.225a18.228,18.228,0,0,0-5.664-1.37c-6.677-.626-12.161.13-16.747,2.307M29.5,48.342c.027,2.016.053,4.011.077,6,4.678-2.1,10.207-2.811,16.871-2.191a20.441,20.441,0,0,1,5.559,1.267q.007-2.446.021-4.9C44.055,45.112,35.468,46.5,29.5,48.342M41.3,45.27a28.48,28.48,0,0,1,10.745,1.993q.016-2.537.043-5.085a19.618,19.618,0,0,0-11.03-3.34H41a22.051,22.051,0,0,0-11.7,2.908L29.5,46.4a.572.572,0,0,1-.016.168c0,.186,0,.375.008.56A41.29,41.29,0,0,1,41.3,45.27m-.3-7.6h.056A20.815,20.815,0,0,1,52.1,40.8q.151-13.11.578-26.406c-1.881-2.256-5.328-2.547-8.424-2.638-5.211-.156-11.668-.348-16.076,3.037l1.072,25.639A23.484,23.484,0,0,1,41,37.671M106.855,193a.584.584,0,0,1-.565-.437,86.362,86.362,0,0,1-1.749-34.928.5.5,0,0,1-.022-.139c-.084-2.188-.279-4.382-.58-6.569a25.725,25.725,0,0,1-9.458-8.557,6.124,6.124,0,0,1-1.391-4.216,2.456,2.456,0,0,1,1.946-1.947,3.441,3.441,0,0,1,2.549.563,6.808,6.808,0,0,1,1.694,1.727,29.358,29.358,0,0,1,3.169,6.38c.258.642.518,1.292.791,1.934a67.685,67.685,0,0,0-4.365-13.841,2.777,2.777,0,0,1-.418-.24,3.731,3.731,0,0,1-.49-.337c-.377-.341-.73-.714-1.076-1.087-3.2-3.425-4.964-7.248-5.111-11.055A6.98,6.98,0,0,1,92,118.012a3.553,3.553,0,0,1,3.451-2.652,3.454,3.454,0,0,1,2.66,2.045c2.53,4.834,2.206,10.384,1.919,15.28v.008a69.191,69.191,0,0,1,5.349,20.4,83.294,83.294,0,0,1,2.306-8.588,53.4,53.4,0,0,1-1.756-6.162,18.31,18.31,0,0,1-.347-6.645,2.549,2.549,0,0,1,1.388-2.233,2.005,2.005,0,0,1,2.094.507,3.711,3.711,0,0,1,.9,1.667,15.976,15.976,0,0,1-.085,6.942c.112-.271.225-.542.341-.81q1.136-2.66,2.115-5.384l.01-.027a99.4,99.4,0,0,0,3.792-13.506,11.581,11.581,0,0,0-2.6-3.563l-.242-.257c-2.247-2.4-5.408-6.106-6.894-10.614a8.253,8.253,0,0,1-.5-2.952,2.31,2.31,0,0,1,.219-.946,1.861,1.861,0,0,1,1.388-.948,2.883,2.883,0,0,1,1.46.189,8.108,8.108,0,0,1,3.732,3.591,31.59,31.59,0,0,1,4.408,10.061,99.109,99.109,0,0,0,.848-21.511,19.481,19.481,0,0,1-2.707-7.541,17.37,17.37,0,0,1,.536-8.249,5.914,5.914,0,0,1,3.572-3.7,3.2,3.2,0,0,1,2.719.272,4.14,4.14,0,0,1,1.508,3.111A22.4,22.4,0,0,1,121.1,88.442c-.318.618-.669,1.242-1.045,1.855-.03.05-.135.2-.273.4-.168.236-.519.732-.683.993,0,.018,0,.035.006.053a100.426,100.426,0,0,1-1.776,27.1.568.568,0,0,1-.041.2q-.746,3.628-1.757,7.2a21.551,21.551,0,0,1,2.544-3.46c1.229-1.3,3.146-3.062,5.588-3.416a3.762,3.762,0,0,1,1.893.144,3.482,3.482,0,0,1,2.094,3.084,6.157,6.157,0,0,1-.956,3.431,13.2,13.2,0,0,1-4.514,4.592,17.434,17.434,0,0,1-5.976,2.271l-.412.077a5.57,5.57,0,0,0-2.69.962.633.633,0,0,1-.118.079q-.8,2.133-1.694,4.228a82.66,82.66,0,0,0-6.461,27.743c.592-1.026,1.123-1.863,1.626-2.567a20.973,20.973,0,0,1,3.705-4.162,7.719,7.719,0,0,1,4.057-1.854A3.777,3.777,0,0,1,118,159.152a3.618,3.618,0,0,1-.518,3.751,8.865,8.865,0,0,1-2.788,2.2c-2.335,1.346-4.773,2.586-7.13,3.785-.96.488-1.918.975-2.872,1.471a85.309,85.309,0,0,0,2.732,21.912.583.583,0,0,1-.565.73m-2.137-24.416c0,.151-.008.3-.012.451q1.159-.6,2.324-1.187c2.345-1.193,4.769-2.426,7.078-3.755a7.8,7.8,0,0,0,2.437-1.89,2.522,2.522,0,0,0,.412-2.519,2.674,2.674,0,0,0-2.628-1.131,6.6,6.6,0,0,0-3.436,1.6,19.882,19.882,0,0,0-3.49,3.935,40.96,40.96,0,0,0-2.667,4.466l-.019.033m-9.1-31.269a1.677,1.677,0,0,0-.346.034,1.291,1.291,0,0,0-1.031.981,5.125,5.125,0,0,0,1.2,3.381,25.43,25.43,0,0,0,7.538,7.35c-.6-1.213-1.112-2.5-1.616-3.75a28.543,28.543,0,0,0-3.029-6.127,5.741,5.741,0,0,0-1.393-1.437,2.456,2.456,0,0,0-1.323-.431m11.972-6.8a.581.581,0,0,0-.2.036c-.4.156-.579.8-.655,1.317a17.143,17.143,0,0,0,.333,6.226c.3,1.389.681,2.813,1.152,4.313.074-.827.155-1.649.267-2.469.07-.51.151-1.021.232-1.535.344-2.163.7-4.4.117-6.446a2.512,2.512,0,0,0-.59-1.15.983.983,0,0,0-.654-.292m16.78-10.043a3.756,3.756,0,0,0-.543.042c-2.085.3-3.8,1.893-4.91,3.064-2.052,2.167-4.094,6.183-5.261,8.7a11.306,11.306,0,0,1,1.92-.47l.4-.076a16.311,16.311,0,0,0,5.58-2.114,12.039,12.039,0,0,0,4.116-4.181,5.047,5.047,0,0,0,.805-2.779,2.34,2.34,0,0,0-1.338-2.064,2.209,2.209,0,0,0-.773-.124m-29.149-3.954a2.448,2.448,0,0,0-2.106,1.825,5.892,5.892,0,0,0-.17,1.861c.138,3.572,1.752,7.039,4.8,10.3.325.349.653.7,1.006,1.019a1.312,1.312,0,0,0,.168.116c.252-4.5.375-9.457-1.844-13.7a2.373,2.373,0,0,0-1.721-1.422c-.044,0-.088,0-.131,0m12.633-15.806a1.148,1.148,0,0,0-.181.014.719.719,0,0,0-.53.329,1.252,1.252,0,0,0-.091.468,7.189,7.189,0,0,0,.445,2.528c1.415,4.289,4.466,7.864,6.639,10.182l.239.254a19.452,19.452,0,0,1,2.018,2.387c-.214-4.039-1.751-8.263-4.693-12.9a7.133,7.133,0,0,0-3.151-3.121,2.031,2.031,0,0,0-.7-.145m12.614-27.3a2.628,2.628,0,0,0-.78.124,4.755,4.755,0,0,0-2.826,2.991,16.255,16.255,0,0,0-.474,7.671,18.7,18.7,0,0,0,2.085,6.32c.1-.146.218-.311.35-.5.113-.159.2-.284.231-.33.36-.587.7-1.186,1-1.778a21.225,21.225,0,0,0,2.355-11.972,2.963,2.963,0,0,0-.991-2.272,1.725,1.725,0,0,0-.95-.256m-44.9,88a.58.58,0,0,1-.1-.008,39.29,39.29,0,0,0-10.458-.419.592.592,0,0,1-.442-.146.584.584,0,0,1-.195-.424,1.341,1.341,0,0,0-.043-.228,2.342,2.342,0,0,1-.077-.453c-.19-5.329.055-10.763.292-16.02a155.859,155.859,0,0,0,.04-20.156c-1.78-20.836-1.214-41.9-.482-61.692a.582.582,0,0,1,.583-.562h10.7a.584.584,0,0,1,.581.523,76.629,76.629,0,0,1,.519,11.146c-.349,8.361-.2,16.876-.047,25.112.067,3.754.135,7.508.158,11.263.1,15.94-.051,32.784-.447,51.492a.584.584,0,0,1-.584.571m-6.89-1.766a40.518,40.518,0,0,1,6.321.5c.384-18.429.526-35.047.432-50.786-.022-3.75-.091-7.5-.158-11.249-.149-8.253-.3-16.787.048-25.182a73.251,73.251,0,0,0-.461-10.452H65.246c-.72,19.592-1.257,40.414.5,60.987a156.73,156.73,0,0,1-.036,20.307c-.236,5.232-.48,10.644-.292,15.922a.581.581,0,0,0,.012.088q1.623-.131,3.249-.131m-51.127.542a.581.581,0,0,1-.491-.268c-4.094-6.357-5.818-14.764-5.124-24.983.036-.539.079-1.077.126-1.616L9.121,124.1A34.49,34.49,0,0,1,7.8,116.648a74.145,74.145,0,0,1,7.5-39.316.543.543,0,0,1,.55-.323.585.585,0,0,1,.517.371c3.86,9.887,5.976,19.118,6.286,27.434a42.371,42.371,0,0,1-8.245,26.678,13.355,13.355,0,0,0-1.2,2.06c-.042.486-.081.972-.113,1.457-.677,9.965.985,18.131,4.94,24.273a.585.585,0,0,1-.49.9M16.687,81.6c.521,9.263.891,18.749-.1,28.095-.395,3.727-1.012,7.483-1.61,11.114-.536,3.26-1.086,6.6-1.477,9.947a41.207,41.207,0,0,0,7.989-25.9,81.373,81.373,0,0,0-4.8-23.253m-1.272-1.8a72.978,72.978,0,0,0-6.448,36.749,33.4,33.4,0,0,0,1.267,7.2l2.132,6.674c.392-3.3.933-6.587,1.46-9.8.6-3.615,1.211-7.354,1.6-11.049,1.047-9.884.558-19.97-.012-29.776" transform="translate(0 0)"/></g></svg>