<svg xmlns="http://www.w3.org/2000/svg" xmlns:xlink="http://www.w3.org/1999/xlink" width="2176.271" height="957.303" viewBox="0 0 2176.271 957.303"><defs><style>.a{fill:none;}.b{opacity:0.376;}.c{clip-path:url(#a);}.d{fill:#8fbe71;}.e{clip-path:url(#b);}.f{clip-path:url(#c);}.g{fill:#31a175;}.h{clip-path:url(#d);}</style><clipPath id="a"><rect class="a" width="401.297" height="132.8"/></clipPath><clipPath id="b"><rect class="a" width="366.597" height="250.761"/></clipPath><clipPath id="c"><rect class="a" width="883.517" height="391.863"/></clipPath><clipPath id="d"><rect class="a" width="293.14" height="184.336"/></clipPath></defs><g transform="translate(220.429 -127.697)"><g transform="translate(503.784 510.534)"><g class="b" transform="translate(0 76.571) rotate(-11)"><g class="c" transform="translate(0 0)"><path class="d" d="M183.858,103.068l1,.978a80.316,80.316,0,0,1,25.37-18.01c9.161-4,19.2-6.1,30.61-6.482q2.337-.08,4.673-.078c19.847,0,39.621,4.073,59.134,8.224,11.2,2.38,21.916,3.37,33.037,5.03a1.4,1.4,0,0,0,1.555-1.754,414.332,414.332,0,0,1-13.9-85.75,1.4,1.4,0,0,0-1.795-1.257,112.12,112.12,0,0,1-32.06,4.358,191.708,191.708,0,0,1-38.564-4.393C247.131,2.738,241.3,1.35,235.3.611a82.143,82.143,0,0,0-25.916.945c-5.952,1.18-11.965,3.08-17.076,6.683a26.63,26.63,0,0,0-6.646,6.693,20.923,20.923,0,0,0-3.51,8.774l1.385.2,1.4-.09a22.286,22.286,0,0,0-5.64-13.047A28.8,28.8,0,0,0,167.44,2.624,44.035,44.035,0,0,0,152.385.253a94.116,94.116,0,0,0-12.514.97,195.535,195.535,0,0,0-21.6,4.159c-5.528,1.392-10.926,3-16.39,3.724a71.558,71.558,0,0,1-9.492.554c-2.4,0-4.825-.076-7.252-.167C71.212,8.98,57.082,7.939,44.779,2.13a1.4,1.4,0,0,0-1.944.893c-7.79,28.285-12.562,57.332-15.677,86.458a1.4,1.4,0,0,0,1.338,1.545c2.479.1,5.448.168,8.835.168A237.025,237.025,0,0,0,62.786,89.82,198.268,198.268,0,0,0,87.35,85.6a158.465,158.465,0,0,1,23.087-3.724c7.146-.627,13.58-1.163,19.71-1.163a67.9,67.9,0,0,1,24.969,4.257,72.975,72.975,0,0,1,27.712,19.046,1.4,1.4,0,0,0,2.029.031l-1-.978,1.029-.947a75.76,75.76,0,0,0-28.78-19.769,70.756,70.756,0,0,0-25.96-4.438c-6.293,0-12.8.547-19.955,1.174a161.153,161.153,0,0,0-23.449,3.78,195.257,195.257,0,0,1-24.258,4.17A234.229,234.229,0,0,1,37.33,88.4c-3.346,0-6.278-.072-8.729-.165l-.053,1.4,1.391.148c3.1-29.021,7.856-57.918,15.593-86.012l-1.35-.371-.6,1.266c12.949,6.1,27.466,7.1,41.444,7.625,2.437.092,4.893.17,7.357.17a74.6,74.6,0,0,0,9.863-.577c5.754-.77,11.252-2.415,16.7-3.784a192.721,192.721,0,0,1,21.3-4.1,91.61,91.61,0,0,1,12.139-.945,41.318,41.318,0,0,1,14.106,2.2A26,26,0,0,1,177.173,12.6a19.5,19.5,0,0,1,4.966,11.4,1.4,1.4,0,0,0,2.78.111,18.123,18.123,0,0,1,3.052-7.6,23.848,23.848,0,0,1,5.947-5.982c4.633-3.273,10.26-5.09,16.007-6.225a79.309,79.309,0,0,1,25.032-.912c5.8.711,11.556,2.075,17.4,3.284a194.439,194.439,0,0,0,39.13,4.452,114.871,114.871,0,0,0,32.857-4.475l-.4-1.341-1.4.083a417.161,417.161,0,0,0,13.99,86.327l1.349-.371.207-1.383c-11.222-1.675-21.879-2.662-32.869-5-19.524-4.149-39.485-8.282-59.716-8.285q-2.381,0-4.767.08a84.81,84.81,0,0,0-31.636,6.714,83.093,83.093,0,0,0-26.25,18.618l1,.978,1.029-.947Z" transform="translate(15.185 -0.001)"/><path class="d" d="M341.625,9.991C343.836,28.244,352,45.037,359.776,61.72c3.9,8.341,7.7,16.654,10.653,25.094A94.8,94.8,0,0,1,376,112.665l1.4-.081.393-1.341c-29.637-8.69-58.835-19.9-89.6-24.807a181.306,181.306,0,0,0-28.494-2.345q-4.3,0-8.593.234a123.527,123.527,0,0,0-36.929,7.46c-2.551.964-4.181,1.65-5.766,2.425s-3.1,1.623-5.465,2.921c-.978.536-2.654,1.48-4.405,2.638a26.369,26.369,0,0,0-4.9,3.986l1.042.936.809-1.14c-11.823-8.394-24.152-17.106-38.6-20.574a78.856,78.856,0,0,0-16.672-1.94q-1.359-.028-2.715-.028c-23.621,0-46.663,6.571-69.027,13.529-19.934,6.2-40.2,12.4-59.527,20.553l.543,1.288,1.391.153C14.123,86.975,28.41,59.757,40.858,32.3A92.466,92.466,0,0,0,44.8,22.522a34.24,34.24,0,0,0,1.82-10.476c0-.541-.017-1.082-.051-1.626a1.4,1.4,0,0,0-2.793.176c.031.483.048.967.048,1.45a31.543,31.543,0,0,1-1.687,9.619,89.7,89.7,0,0,1-3.822,9.478C25.929,58.5,11.441,85.961,8.1,116.225a1.4,1.4,0,0,0,1.934,1.441c19.149-8.08,39.328-14.252,59.27-20.458,22.322-6.951,45.1-13.407,68.2-13.4q1.326,0,2.654.028a76.188,76.188,0,0,1,16.081,1.862c13.75,3.285,25.819,11.729,37.63,20.134a1.4,1.4,0,0,0,1.854-.207,23.636,23.636,0,0,1,4.358-3.521c1.648-1.092,3.264-2,4.2-2.518,2.383-1.305,3.862-2.133,5.348-2.86s3.011-1.372,5.525-2.32a120.766,120.766,0,0,1,36.1-7.285q4.215-.232,8.439-.229A178.514,178.514,0,0,1,287.747,89.2c30.383,4.84,59.474,15.989,89.254,24.729a1.4,1.4,0,0,0,1.792-1.424,97.576,97.576,0,0,0-5.723-26.613c-4.52-12.907-10.912-25.342-16.551-37.871S346,22.879,344.4,9.656a1.4,1.4,0,1,0-2.776.335" transform="translate(4.526 4.711)"/><path class="d" d="M368.464,18.009c.114,18.009,6.311,35.2,13.1,52.216s14.2,33.858,16.955,51.076l1.382-.221.324-1.36c-19.545-4.681-39.334-9.417-59.6-10.167q-3.05-.115-6.092-.111c-20.766,0-41.3,3.624-61.79,4.846q-7.967.477-15.953.477-11.192,0-22.356-.937a112.23,112.23,0,0,1-18.188-2.821,53.811,53.811,0,0,1-16.5-6.976,1.4,1.4,0,0,0-1.45-.055c-5.1,2.84-10.815,3.823-16.824,3.825-6.451,0-13.2-1.146-19.71-2.275-17.982-3.117-36.345-5.592-54.64-5.592a165.993,165.993,0,0,0-31.891,2.9c-12.518,2.447-24.778,6.6-37.021,10.285s-24.463,6.92-36.881,7.6l.076,1.4,1.4.078c.97-17.469,5.886-34.3,11.472-51.147S26.093,37.358,29.621,19.853a1.4,1.4,0,1,0-2.743-.552c-3.465,17.218-9.662,33.961-15.266,50.865S1,104.141,0,122.037a1.4,1.4,0,0,0,1.472,1.475c12.8-.7,25.235-4.006,37.536-7.711s24.478-7.823,36.75-10.218a163.222,163.222,0,0,1,31.355-2.852c18.043,0,36.251,2.445,54.163,5.551,6.515,1.127,13.41,2.314,20.187,2.314,6.3,0,12.535-1.034,18.183-4.177l-.68-1.221-.77,1.166a56.625,56.625,0,0,0,17.351,7.354,115.248,115.248,0,0,0,18.645,2.9q11.269.947,22.59.947,8.065,0,16.12-.482c20.708-1.244,41.183-4.846,61.623-4.842q2.994,0,5.989.108c19.9.734,39.512,5.408,59.056,10.092a1.4,1.4,0,0,0,1.706-1.581c-2.84-17.706-10.351-34.715-17.118-51.67s-12.8-33.834-12.9-51.2a1.4,1.4,0,0,0-2.8.017" transform="translate(0 9.285)"/><path class="d" d="M126.752,66.438q.028.648.028,1.3,0,1.127-.084,2.252c-.031.4-.072.853-.073,1.35a4.816,4.816,0,0,0,.577,2.456l1.21-.7-1.4-.011A48.643,48.643,0,0,1,126.756,78a1.4,1.4,0,1,0,2.782.282,51.443,51.443,0,0,0,.271-5.177,1.379,1.379,0,0,0-.186-.71,2.1,2.1,0,0,1-.2-1.059c0-.332.031-.719.064-1.138q.094-1.23.094-2.464c0-.472-.009-.945-.031-1.417a1.4,1.4,0,1,0-2.794.122" transform="translate(70.823 36.343)"/><path class="d" d="M126.457,15.228q.412,14.539.41,29.086,0,8.7-.147,17.405c-.048,2.93-.069,5.819-.069,8.687,0,8.333.167,16.491.262,24.963a1.4,1.4,0,1,0,2.8-.031c-.1-8.489-.262-16.636-.262-24.932,0-2.855.02-5.729.069-8.64q.147-8.724.147-17.452,0-14.584-.412-29.166a1.4,1.4,0,1,0-2.8.08" transform="translate(70.73 7.712)"/><path class="d" d="M18.941,23.511A36.068,36.068,0,0,0,29.1,19.287a70.357,70.357,0,0,0,6.786-4.9,1.4,1.4,0,0,0-1.728-2.2A67.861,67.861,0,0,1,27.646,16.9a33.342,33.342,0,0,1-9.372,3.9,1.4,1.4,0,1,0,.667,2.715" transform="translate(9.625 6.647)"/><path class="d" d="M222.642,10.811,227.4,14.7c1.353,1.107,2.733,2.238,4.226,3.279a35.625,35.625,0,0,0,10.4,4.974,1.4,1.4,0,1,0,.781-2.685,32.836,32.836,0,0,1-9.582-4.583c-1.374-.959-2.7-2.043-4.054-3.15q-2.376-1.946-4.754-3.891a1.4,1.4,0,0,0-1.771,2.164" transform="translate(124.242 4.658)"/></g></g></g><g class="b" transform="translate(1090.848 361.387) rotate(11)"><g class="e"><path class="d" d="M25.577,160.012l-.53,1.533a4.424,4.424,0,0,0,1.114.207c.361.029.744.039,1.2.055.117,0,.233.006.35.006a22.5,22.5,0,0,0,6.5-1.253c2.131-.673,4.183-1.461,5.817-1.956q6.38-1.944,12.57-4.457a147.519,147.519,0,0,0,23.119-11.852c16.439-10.362,30.528-23.729,46.067-34.776,5.685-4.051,11.613-7.766,18.1-9.384a33.6,33.6,0,0,1,8.175-.99,50.145,50.145,0,0,1,18.392,3.992,145.776,145.776,0,0,1,17.878,8.959,2.014,2.014,0,0,0,.988.263,2,2,0,0,0,1.992-1.992,2.019,2.019,0,0,0-.282-1.02v0C171.6,81.2,158.209,53.465,145.559,25.793a1.629,1.629,0,0,0-.26-.4l-.147-.166a1.563,1.563,0,0,0-.367-.309,62.408,62.408,0,0,0-32.493-9.076,60.831,60.831,0,0,0-15.238,1.92C88.7,19.925,81.076,23.744,73.809,28.166s-14.188,9.458-21.142,14.1a124.775,124.775,0,0,1-20.3,11.368,55.9,55.9,0,0,1-21.776,4.892q-1.348,0-2.7-.084l-.127,0a2.005,2.005,0,0,0-1.4.572,1.972,1.972,0,0,0-.4,2.257h0A7.322,7.322,0,0,1,6.328,62.4c.246.936.5,2.244.724,3.668.344,2.141.643,4.56.874,6.558.116,1,.214,1.9.293,2.6s.136,1.215.182,1.523q1.872,12.294,3.911,24.56,2.4,14.427,5.029,28.815,1.315,7.193,2.69,14.376c.4,2.105,1.105,4.349,1.692,6.538a24.933,24.933,0,0,1,1.055,6.023l.013.2.009.077.035.191c.117.47.2.863.282,1.212a6.865,6.865,0,0,0,.452,1.484,2.611,2.611,0,0,0,.589.8,2.552,2.552,0,0,0,.889.519l.53-1.533.532-1.533-.234.678.545-.449a.786.786,0,0,0-.311-.228l-.234.678.545-.449-.448.368.51-.28-.062-.088-.448.368.51-.28-.169.092.175-.082-.006-.01-.169.092.175-.082a.9.9,0,0,1-.049-.144c-.09-.295-.218-.964-.452-1.913l-1.576.39,1.611-.2-.009-.077-1.611.2,1.622-.006a27.722,27.722,0,0,0-1.166-6.856c-.61-2.264-1.289-4.469-1.638-6.305q-1.372-7.171-2.684-14.35-2.627-14.362-5.021-28.764-2.035-12.242-3.9-24.515c-.019-.124-.061-.47-.113-.926-.183-1.618-.517-4.771-.949-7.837-.217-1.533-.457-3.047-.722-4.357-.134-.657-.273-1.263-.423-1.8a9.332,9.332,0,0,0-.514-1.462l-1.149.543H9.01a1.28,1.28,0,0,0-.121-.543l-1.149.543h0l.889.906a1.276,1.276,0,0,0,.377-.906H7.744l.889.906-.87-.887v1.243a1.25,1.25,0,0,0,.87-.355l-.87-.887v.026l-.077,1.215h.077V60.469l-.077,1.215q1.456.091,2.9.09a59.118,59.118,0,0,0,23.043-5.149A127.968,127.968,0,0,0,54.472,44.968c7.023-4.7,13.909-9.7,21.025-14.029S89.947,22.952,97.867,20.9a57.568,57.568,0,0,1,14.425-1.816,59.148,59.148,0,0,1,30.794,8.6l.85-1.383-1.216,1.075.147.168,1.217-1.075-1.475.675c12.669,27.714,26.1,55.545,41.626,81.856v0l1.072-.634h-1.244a1.251,1.251,0,0,0,.172.634l1.072-.634h.009l-.89-.886a1.256,1.256,0,0,0-.363.886h1.253l-.89-.886.891.887v-1.254a1.256,1.256,0,0,0-.891.367l.891.887v-.013l.615-1.082a1.26,1.26,0,0,0-.615-.159v1.241l.615-1.082a149.319,149.319,0,0,0-18.284-9.153,53.3,53.3,0,0,0-19.59-4.22,36.792,36.792,0,0,0-8.962,1.086c-7.169,1.8-13.412,5.776-19.2,9.887-15.78,11.236-29.83,24.553-45.915,34.676a144.45,144.45,0,0,1-22.611,11.59q-6.046,2.453-12.3,4.359c-1.8.55-3.836,1.332-5.847,1.966a19.559,19.559,0,0,1-5.519,1.1c-.084,0-.165,0-.246,0-.459-.014-.815-.026-1.053-.045-.118-.01-.207-.02-.259-.029l-.052-.01h0l-.051.17.059-.168-.009,0-.051.17.059-.168Z" transform="translate(2.564 7.046)"/><path class="d" d="M103.586,33.162c-.016-.17-.023-.34-.023-.506a7.749,7.749,0,0,1,.865-3.329,23.16,23.16,0,0,1,2.119-3.415,67.86,67.86,0,0,1,8.911-10.329A35.6,35.6,0,0,1,126.5,8.431,48.785,48.785,0,0,1,139.462,5.7a140.342,140.342,0,0,1,14.2-.72q4.74,0,9.469.319c10.7.72,21.507,2.7,32.532,2.709q1.608,0,3.222-.061c9.135-.35,18.05-2.274,26.778-4.386A1.622,1.622,0,1,0,224.9.409c-8.674,2.1-17.381,3.964-26.138,4.3q-1.547.059-3.1.056c-10.631.006-21.365-1.955-32.313-2.7q-4.837-.327-9.689-.327a143.874,143.874,0,0,0-14.524.735,51.9,51.9,0,0,0-13.827,2.939,38.81,38.81,0,0,0-12.05,7.787,70.938,70.938,0,0,0-9.346,10.82,26.174,26.174,0,0,0-2.411,3.908,10.961,10.961,0,0,0-1.185,4.73c0,.269.013.537.039.808a1.622,1.622,0,1,0,3.231-.3" transform="translate(44.619 0.162)"/><path class="d" d="M211.815,2.872C233.592,20.9,252.224,42.821,274.637,60.7c10.608,8.455,20.952,16.9,29.855,26.918l1.212-1.078.017-1.622a668.094,668.094,0,0,1-72.335-4.677c-12.768-1.523-25.675-3.44-38.694-3.443-2.544,0-5.093.074-7.646.24a84.6,84.6,0,0,0-23.15,4.625A58.064,58.064,0,0,0,143.734,93.7c-6.45,6.042-11.171,13.621-14.8,21.517a1.623,1.623,0,0,0,2.949,1.355c3.512-7.644,8.037-14.855,14.071-20.5A54.828,54.828,0,0,1,165,84.718a81.375,81.375,0,0,1,22.257-4.44c2.475-.16,4.954-.231,7.436-.231,12.7,0,25.48,1.884,38.31,3.418a670.516,670.516,0,0,0,72.686,4.7,1.621,1.621,0,0,0,1.23-2.7c-9.134-10.274-19.636-18.83-30.257-27.3-22.1-17.608-40.715-39.5-62.776-57.791a1.623,1.623,0,1,0-2.07,2.5" transform="translate(57.28 0)"/><path class="d" d="M10.284,47.747a11.809,11.809,0,0,0-2-.17,12.128,12.128,0,0,0-6.494,1.884A1.621,1.621,0,0,0,1.061,51.1C3.916,67.98,6.687,85.162,9.543,102.06c2.579,15.244,5.162,30.53,8.682,45.652,1.588,6.814,3.417,13.821,7.087,20.091a1.627,1.627,0,0,0,1.924.717c19.373-6.62,39.545-13.088,56.485-25.225,13.064-9.377,23.689-21.417,35.634-31.579a100.284,100.284,0,0,1,19.377-13.266A54.349,54.349,0,0,1,160.6,92.258q.865-.043,1.764-.042a67.982,67.982,0,0,1,12.714,1.458c4.368.854,8.706,1.956,12.584,2.934a1.618,1.618,0,0,0,1.865-.886c1.806-3.86,4.893-6.935,8.484-9.686A68.6,68.6,0,0,1,223.02,74.329,114.46,114.46,0,0,1,251.194,71.1l1.059,0c19.278.13,38.576,3.57,58.193,4.092q6.4.169,12.805.162c13.8,0,27.581-.519,41.329-1.114a1.623,1.623,0,0,0,.971-2.868c-2.67-2.224-5.229-4.68-8.013-7a1.622,1.622,0,1,0-2.078,2.492c2.668,2.225,5.227,4.68,8.011,7l1.039-1.247L364.442,71c-13.738.6-27.475,1.111-41.191,1.111q-6.363,0-12.718-.16c-19.292-.5-38.612-3.949-58.257-4.093-.361,0-.721,0-1.082,0a117.664,117.664,0,0,0-28.977,3.326,71.854,71.854,0,0,0-26.182,12.278c-3.787,2.905-7.309,6.33-9.447,10.885l1.469.689.4-1.575c-3.875-.975-8.269-2.093-12.753-2.972a71.126,71.126,0,0,0-13.338-1.518q-.973,0-1.924.046a57.586,57.586,0,0,0-23.17,6.539,103.506,103.506,0,0,0-20.016,13.689c-12.171,10.374-22.747,22.335-35.422,31.412-16.374,11.748-36.225,18.17-55.643,24.79l.524,1.536,1.4-.819c-3.374-5.752-5.158-12.431-6.727-19.187-3.489-14.994-6.064-30.215-8.641-45.459C9.889,84.637,7.119,67.456,4.261,50.558l-1.6.27L3.534,52.2a8.893,8.893,0,0,1,4.748-1.374,8.541,8.541,0,0,1,1.452.124,1.623,1.623,0,1,0,.55-3.2" transform="translate(0.462 21.162)"/><path class="d" d="M4.356,54.244l-2.849.205a1.622,1.622,0,0,0-1.5,1.807C3.863,89,3.425,122.327,11.135,154.8c2.174,9.14,4.545,17.99,9.169,26.425a1.62,1.62,0,0,0,1.8.8c3.681-.871,9.939-2.469,17.492-5.041,23.64-8.045,39.019-18.524,54.386-30.026s30.764-24.027,54.734-36.5A263.591,263.591,0,0,1,188.917,93.49c28.774-9.254,51.8-12.454,80.723-12.46q3.017,0,6.124.046c25.279.368,50.622,2.611,76.062,2.614q6.27,0,12.544-.2a1.622,1.622,0,0,0,1.306-2.505l-7.7-11.857a1.623,1.623,0,0,0-2.722,1.767l7.7,11.859,1.361-.884-.053-1.621q-6.213.206-12.435.2c-25.248,0-50.576-2.239-76.013-2.612q-3.132-.046-6.174-.046c-29.157-.006-52.674,3.264-81.717,12.617a266.582,266.582,0,0,0-40.71,17.176c-24.259,12.62-39.885,25.334-55.182,36.78s-30.258,21.636-53.486,29.55c-7.426,2.528-13.58,4.1-17.193,4.957l.374,1.579,1.422-.782c-4.385-7.993-6.7-16.527-8.857-25.613C6.689,122.1,7.1,88.9,3.235,55.878l-1.611.189.116,1.618,2.849-.2a1.623,1.623,0,0,0-.233-3.238" transform="translate(0 24.125)"/><path class="d" d="M316.023,72.906l-20.942,21.6c-7.416,7.65-14.87,15.336-21.745,23.58-6.837,8.2-13.009,16.823-20.02,24.6-3.231,3.586-6.795,7.225-10.044,11.142a50.009,50.009,0,0,0-8.123,12.853l1.5.613.215-1.608-61.692-8.234c-30.67-4.092-61.86-7.818-92.914-7.884l0,1.622,1.237,1.05q27.861-32.755,58.6-62.913a1.622,1.622,0,1,0-2.271-2.316q-30.8,30.217-58.8,63.127a1.622,1.622,0,0,0,1.232,2.674c30.8.065,61.853,3.767,92.491,7.857q30.848,4.115,61.694,8.234a1.624,1.624,0,0,0,1.718-1,46.788,46.788,0,0,1,7.613-12.006c3.135-3.78,6.666-7.389,9.959-11.042,7.172-7.964,13.364-16.622,20.1-24.7,6.772-8.121,14.166-15.751,21.584-23.4l20.942-21.6a1.623,1.623,0,1,0-2.33-2.258" transform="translate(35.864 32.208)"/><path class="d" d="M233.284,143.306a106.163,106.163,0,0,0-1.452,15.771,55.3,55.3,0,0,0,.543,7.889c.535,3.71,1.484,7.24,2.135,10.716a70.165,70.165,0,0,1,1.183,10.821,9.694,9.694,0,0,0,.542,3.008,5.943,5.943,0,0,0,.793,1.49,4.634,4.634,0,0,0,1.352,1.237l.834-1.393-.136-1.617c-2.732.227-5.469.327-8.209.327a203.892,203.892,0,0,1-24.252-1.833q-56.188-6.749-111.984-16.368a59.7,59.7,0,0,0-10.268-1.141c-.256,0-.513,0-.77.009l.036,1.622,1.586-.342a50.847,50.847,0,0,1-.967-10.745c0-3.244.169-6.541.272-9.856q.111-3.58.111-7.111c0-6.162-.253-12.259-.76-18.479a1.623,1.623,0,0,0-3.235.264c.5,6.136.75,12.141.75,18.214q0,3.485-.11,7.012c-.1,3.271-.273,6.6-.273,9.956a54.015,54.015,0,0,0,1.039,11.428,1.622,1.622,0,0,0,1.625,1.28c.233,0,.464-.007.695-.007a56.676,56.676,0,0,1,9.718,1.1q55.85,9.629,112.147,16.391A206.883,206.883,0,0,0,230.87,194.8c2.819,0,5.646-.1,8.479-.337a1.623,1.623,0,0,0,.7-3.01,1.422,1.422,0,0,1-.412-.386,3.238,3.238,0,0,1-.494-1.13,7.162,7.162,0,0,1-.2-1.537,73.563,73.563,0,0,0-1.235-11.32c-.689-3.637-1.62-7.121-2.115-10.576a52.057,52.057,0,0,1-.51-7.428,103.289,103.289,0,0,1,1.416-15.292,1.622,1.622,0,1,0-3.209-.48" transform="translate(35.865 55.962)"/><path class="d" d="M272.71,73.984q.1,6.586.2,13.172a74.05,74.05,0,0,0,.412,7.943,32.6,32.6,0,0,1,.4,3.884v.146h0a21.42,21.42,0,0,1-.387,3.2,22.275,22.275,0,0,0-.4,3.68,9.218,9.218,0,0,0,.345,2.588l1.557-.451-1.26-1.021c-8.781,10.832-17.171,21.311-24.917,33.012-3.811,5.76-7.316,11.645-11.2,17.2-3.9,5.568-8.219,10.872-12.564,16.2q-7.1,8.7-14.192,17.4c-6.707,8.234-14.849,15.615-21.142,24.68a1.622,1.622,0,0,0,2.667,1.848c6-8.664,14.065-16,20.99-24.478l14.191-17.4c4.346-5.331,8.722-10.694,12.71-16.393,3.975-5.682,7.493-11.592,11.249-17.265,7.64-11.544,15.958-21.938,24.732-32.759a1.618,1.618,0,0,0,.3-1.474,6.03,6.03,0,0,1-.217-1.686,19.146,19.146,0,0,1,.361-3.14,24.452,24.452,0,0,0,.431-3.687h0v-.192a34.235,34.235,0,0,0-.426-4.284,70.382,70.382,0,0,1-.387-7.592q-.1-6.586-.2-13.174a1.623,1.623,0,1,0-3.245.051" transform="translate(84.185 32.173)"/></g></g><g transform="matrix(-0.276, -0.961, 0.961, -0.276, 23.101, 1085)"><g class="f"><path class="g" d="M278.452,36.065l.024-1.246L287.4,35c25.746.519,52.37,1.055,78.433-.8l.089,1.244c-26.12,1.862-52.772,1.325-78.548.805Z" transform="translate(226.413 27.804)"/><path class="g" d="M163.741,60.752l-.4-1.184c5.84-1.955,11.934-3.824,18.111-5.555,40.572-11.357,84.87-17.489,139.41-19.3,9.055-.3,18.982-.408,30.352-.326l-.009,1.247c-11.352-.082-21.264.025-30.3.325-54.437,1.806-98.642,7.923-139.115,19.255-6.157,1.722-12.231,3.586-18.053,5.535" transform="translate(132.819 27.941)"/><path class="g" d="M110.712,103.351l-.878-.888c21.5-21.228,49.636-38.576,83.639-51.558l.446,1.166c-33.842,12.92-61.836,30.174-83.207,51.28" transform="translate(89.307 41.392)"/><path class="g" d="M80.786,165.852,79.6,165.47c9.8-30.422,22.454-55.322,38.7-76.122l.983.767c-16.149,20.684-28.741,45.457-38.491,75.737" transform="translate(64.722 72.65)"/><path class="g" d="M69.347,192.82c2.4-14.255,4.569-25.9,6.845-36.652l1.22.257c-2.27,10.734-4.442,22.365-6.834,36.6Z" transform="translate(56.387 126.982)"/><path class="g" d="M231.434,44.615l-.109-1.242c13.6-1.177,27.576-1.993,42.717-2.495,20.02-.664,40.407-.254,60.123.145,25.748.519,52.374,1.055,78.439-.8l.087,1.244c-26.122,1.862-52.774,1.325-78.551.805-19.7-.4-40.068-.809-60.058-.145-15.116.5-29.066,1.315-42.648,2.489" transform="translate(188.093 32.705)"/><path class="g" d="M167.411,64.684l-.4-1.18c6.409-2.183,13.111-4.259,19.921-6.166A486.875,486.875,0,0,1,254.5,43.712l.165,1.235a485.716,485.716,0,0,0-67.4,13.593c-6.788,1.9-13.47,3.969-19.854,6.145" transform="translate(135.796 35.543)"/><path class="g" d="M117.775,105.009l-.847-.914C137.549,85,163.857,69.209,195.122,57.15l.448,1.164c-31.115,12-57.289,27.712-77.8,46.695" transform="translate(95.076 46.469)"/><path class="g" d="M87.4,164.478l-1.173-.421c10.4-28.941,23.717-52.638,40.7-72.447l.946.812c-16.887,19.694-30.129,43.263-40.478,72.055" transform="translate(70.112 74.49)"/><path class="g" d="M75.044,193.964c2.567-14.842,5.024-27.086,7.729-38.534l1.215.288c-2.7,11.421-5.151,23.641-7.713,38.458Z" transform="translate(61.019 126.382)"/><path class="g" d="M1.7,152.04c1.246,4.109,4.382,7.167,7.269,9.738,7.049,6.275,15.557,11.838,27.579,18.033A281.423,281.423,0,0,0,107.34,205c17.66,3.726,33.187,12.906,48.856,22.789,2.567,1.619,5.144,3.313,7.635,4.95,3.6,2.362,7.314,4.807,11.058,7.06,1.644.992,3.311,1.953,4.981,2.915,1.4.805,2.807,1.619,4.215,2.455l-2.778-2.749c-4.33-4.288-8.8-8.714-12.851-13.4-1.973-2.283-3.889-4.671-5.742-6.982a138.912,138.912,0,0,0-10.191-11.776c-4.99-4.953-10.028-8.384-14.98-10.19-4.054-1.485-8.821-1.646-13.428-1.8-1.877-.065-3.815-.131-5.639-.288a194.739,194.739,0,0,1-38.355-7.5l-.794-.234c-11.441-3.362-24.4-7.171-34.759-13.716-2.58-1.632-5.079-3.5-7.492-5.314-4.879-3.657-9.923-7.439-15.749-9.256-1.064-.332-2.181-.606-3.264-.87a26.763,26.763,0,0,1-6.817-2.346,27.686,27.686,0,0,1-4.221-3.129A19.087,19.087,0,0,0,1.7,152.04m187.184,96.128c1.46.966,2.892,1.98,4.27,3.057a79.351,79.351,0,0,0,17.484,10.415c18.668,8.077,38.85,8.937,60.021,2.558-.457-.169-.916-.341-1.376-.513-9.211-3.436-19.651-7.33-26.847-13.856-2.256-2.045-4.473-4.141-6.616-6.168-8.618-8.146-16.759-15.843-27.717-20.947-13.189-6.143-28.134-8.83-42.585-11.435-3.137-.566-6.257-1.128-9.334-1.719l-3.235-.624c.152.147.3.3.455.45a139.56,139.56,0,0,1,10.286,11.878c1.846,2.3,3.755,4.683,5.711,6.946,4.021,4.647,8.473,9.056,12.777,13.319Zm38.518,19.98a83.438,83.438,0,0,1-17.259-5.363,80.5,80.5,0,0,1-17.756-10.578c-1.369-1.068-2.794-2.076-4.252-3.039l-.007.007-.034-.034c-2.888-1.909-5.9-3.644-8.844-5.343-1.675-.966-3.351-1.931-5-2.926-3.762-2.266-7.492-4.718-11.1-7.087-2.488-1.634-5.06-3.325-7.615-4.937-15.571-9.822-30.992-18.942-48.448-22.624a282.631,282.631,0,0,1-71.11-25.3c-12.121-6.246-20.706-11.863-27.837-18.213C4.861,159.793,1.276,156.263.2,151.25l-.2-.965.959.227c2.7.64,4.821,2.43,6.87,4.161a26.854,26.854,0,0,0,4.029,3,25.431,25.431,0,0,0,6.505,2.221c1.1.27,2.234.549,3.336.892,6.03,1.882,11.162,5.728,16.126,9.45,2.4,1.795,4.87,3.652,7.41,5.256,10.208,6.453,23.083,10.235,34.442,13.573l.8.236a193.359,193.359,0,0,0,38.112,7.448c1.79.154,3.626.218,5.572.285,4.707.16,9.57.326,13.816,1.877a41.319,41.319,0,0,1,13.272,8.433l5.173,1c3.073.591,6.186,1.151,9.321,1.717,14.527,2.618,29.552,5.32,42.889,11.531,11.142,5.191,19.353,12.953,28.045,21.172,2.139,2.022,4.351,4.114,6.6,6.15,7.019,6.364,17.341,10.215,26.444,13.613q1.569.582,3.084,1.155l1.674.635-1.7.544c-15.712,5.011-30.908,6.11-45.37,3.3" transform="translate(0 122.199)"/><path class="g" d="M110.448,228.358l-.934-.827c8.683-9.8,14.463-20.842,16.715-31.934,4.353-21.444,6.466-43.085-7.45-56.119l.852-.91c14.363,13.453,12.246,35.479,7.82,57.276-2.3,11.308-8.175,22.551-17,32.515" transform="translate(89.047 112.671)"/><path class="g" d="M108.048,225.229l-.234-.145c-15.1-9.348-26.95-17.821-37.287-26.662-4.825-4.123-10.975-9.724-15.77-16.47q-.664-.933-1.293-1.889l1.041-.687c.412.627.834,1.244,1.267,1.855,4.72,6.634,10.8,12.166,15.564,16.244,10.235,8.754,21.964,17.147,36.9,26.4a99.249,99.249,0,0,0,20.74-8.746l.607,1.09a100.35,100.35,0,0,1-21.27,8.931Z" transform="translate(43.472 145.852)"/><path class="g" d="M54.311,192.571q-.737-1.567-1.432-3.155c-6.273-14.266-8.667-27.168-7.116-38.353l1.235.17c-1.518,10.953.845,23.63,7.024,37.68q.688,1.572,1.418,3.128Z" transform="translate(36.838 122.831)"/><path class="g" d="M76.952,176.924q-1.694-.329-3.38-.676c-11-2.274-22.12-5.559-28.925-14.14a26.729,26.729,0,0,1-.847-31.055l1.019.722a25.437,25.437,0,0,0,.805,29.557c6.556,8.271,17.429,11.47,28.2,13.694,5.4,1.115,10.893,2.089,16.331,2.9l-.183,1.233c-4.33-.644-8.7-1.392-13.022-2.234" transform="translate(31.906 106.56)"/><path class="g" d="M67.508,159.071l-.553-1.117c2.9-1.434,5.78-1.664,8.828-1.909.676-.054,1.36-.109,2.051-.178l.792-.082.134,1.238-.8.083c-.7.071-1.389.127-2.074.181-2.926.234-5.69.455-8.375,1.782" transform="translate(54.442 126.672)"/><path class="g" d="M73.524,157.793l-.132-1.24c3.706-.4,7.448-.972,11.122-1.71l.245,1.224c-3.711.745-7.49,1.325-11.234,1.726" transform="translate(59.676 125.905)"/><path class="g" d="M79.772,174.267l-.245-1.224a124.4,124.4,0,0,0,22.637-6.841c12.706-5.2,24.562-12.6,36.028-19.752,6.553-4.087,12.184-7.961,14.735-13.99l1.15.486c-2.694,6.364-8.487,10.36-15.225,14.563-11.51,7.18-23.413,14.6-36.215,19.848a126.062,126.062,0,0,1-22.865,6.91" transform="translate(64.664 107.705)"/><path class="g" d="M42.511,136.082l-.789-.966a41.028,41.028,0,0,1,22.39-8.7c8.275-.687,16.465.444,24.084,1.768,8.2,1.425,14.929,3.017,21.154,6.146,5.04,2.538,11.111,1.588,16.983.671,1.133-.178,2.257-.354,3.363-.5a214.452,214.452,0,0,1,50.113-.519c.207.02.45.034.705.053a6.382,6.382,0,0,1,3.36.8,2.794,2.794,0,0,1,.819,3.565l-1.052-.671a1.591,1.591,0,0,0-.551-1.922,6.094,6.094,0,0,0-2.653-.529c-.277-.016-.535-.033-.754-.056a213.245,213.245,0,0,0-49.821.515c-1.1.149-2.212.323-3.338.5-6.065.948-12.333,1.927-17.738-.791-6.085-3.059-12.71-4.623-20.805-6.03-7.535-1.309-15.631-2.43-23.764-1.753a39.759,39.759,0,0,0-21.707,8.418" transform="translate(33.925 102.625)"/><path class="g" d="M140.488,146.73q-.631-.122-1.284-.257c-14.391-2.952-28.62-9.519-42.291-19.525C84.827,118.1,74.819,107.053,65.142,96.369c-4.194-4.629-8.529-9.417-12.993-13.983-4.065-4.157-8.487-8.583-13.519-13.529q-3.549-3.484-7.118-6.95c-.219-.212-.647-.7-1.182-1.3-1.021-1.155-3.731-4.219-4.439-4.386L25.9,55.6l-.067-.622h0c3.028-.319,4.408-2.06,6.005-4.076A19.232,19.232,0,0,1,34.85,47.67c2.944-2.364,6.913-3.862,12.483-4.71a74.965,74.965,0,0,1,44.807,7.312c6.95,3.452,13.412,7.954,19.661,12.306,3.76,2.62,7.65,5.329,11.6,7.775,3.566,2.21,7.31,4.286,10.933,6.293,6.389,3.543,13,7.205,18.894,11.747,5.869,4.518,13.538,12.032,16.742,22.162l-1.189.377c-3.108-9.822-10.585-17.141-16.313-21.551-5.826-4.484-12.393-8.125-18.74-11.644-3.635-2.016-7.392-4.1-10.986-6.324-3.976-2.464-7.878-5.182-11.655-7.811-6.21-4.328-12.636-8.8-19.5-12.211a73.7,73.7,0,0,0-44.064-7.2c-5.347.814-9.124,2.23-11.89,4.451a18.262,18.262,0,0,0-2.818,3.037c-1.354,1.708-2.747,3.467-5.233,4.219a48.423,48.423,0,0,1,3.682,3.88c.506.573.91,1.032,1.117,1.231q3.571,3.47,7.124,6.957c5.039,4.952,9.464,9.383,13.537,13.548,4.48,4.582,8.824,9.377,13.025,14.017,9.635,10.638,19.6,21.638,31.583,30.408,13.526,9.9,27.59,16.4,41.8,19.31,3.624.745,6.661,1.271,10.063.762l.185,1.235a26.145,26.145,0,0,1-9.214-.517" transform="translate(21.003 34.261)"/><path class="g" d="M108.447,97.564a14.134,14.134,0,0,1,6.078,2.749c3.637,2.87,6.221,6.8,8.765,10.915,4.8,7.764,9.417,15.832,13.883,23.636,10.106,17.658,20.555,35.918,33.766,51.752.528.633,1.119,1.378,1.784,2.217,5,6.292,14.383,18.115,32.107,25.995a75.64,75.64,0,0,1-19.373-17.3c-8.87-11.029-15.007-23.9-19.841-35.035-4.647-10.7-8.884-21.741-12.594-32.806q-.68-2.021-1.345-4.051c-2.787-8.449-5.668-17.185-10.177-24.948-5.885-10.132-14-17.127-22.851-19.7-3.274-.956-5.954-1.041-8.192-.27-2.867.988-5.318,3.57-6.723,7.089a37.415,37.415,0,0,0-1.891,9.941,15.2,15.2,0,0,1,6.605-.18m109.6,123.147c-27.131-6.955-40.079-23.264-46.3-31.1-.658-.829-1.246-1.567-1.766-2.192C156.7,171.5,146.222,153.187,136.09,135.482c-4.46-7.795-9.075-15.852-13.861-23.6-2.484-4.016-5-7.847-8.476-10.592a13.6,13.6,0,0,0-12.427-2.105l-.9.286.109-1.164c.339-3.6.72-7.669,2.04-10.969,1.539-3.856,4.264-6.7,7.475-7.807,2.491-.859,5.416-.772,8.948.252,9.16,2.663,17.533,9.863,23.58,20.272,4.574,7.876,7.477,16.673,10.282,25.184q.669,2.026,1.342,4.047c3.7,11.029,7.925,22.033,12.558,32.7,4.8,11.058,10.891,23.835,19.669,34.75,6.411,7.972,17.159,18.4,31.952,22.765Z" transform="translate(81.658 64.193)"/><path class="g" d="M204.843,127.5a1.933,1.933,0,0,1-1.3-.865c-1.788-2.81-4.573-4.64-7.523-6.578a36.86,36.86,0,0,1-5.945-4.507,36,36,0,0,1-5.316-7.524c-.45-.769-.9-1.538-1.363-2.3-2.421-3.934-5.173-6.558-8.183-7.795l-.47-.194.094-.5c.992-5.22.428-11.064-1.674-17.366A106.029,106.029,0,0,0,165.65,63.7c-5.062-9.459-10.96-20.51-16.86-31.559s-11.8-22.1-16.858-31.557l1.1-.587c5.062,9.459,10.96,20.508,16.86,31.557s11.8,22.1,16.858,31.557a107.075,107.075,0,0,1,7.6,16.365,36.159,36.159,0,0,1,1.8,17.5c3.075,1.407,5.867,4.127,8.306,8.1.47.762.923,1.539,1.376,2.315a35.055,35.055,0,0,0,5.124,7.272,35.93,35.93,0,0,0,5.746,4.348c2.93,1.926,5.962,3.915,7.893,6.951a.677.677,0,0,0,.537.317,2.872,2.872,0,0,0,2.013-.711,4.027,4.027,0,0,0,1.093-3.03c-.016-3.537-2.3-6.638-4.509-9.637l-.283-.386A232.115,232.115,0,0,1,189.413,90c-3.039-5.32-6.181-10.819-7.921-16.858-.555-1.927-.968-3.916-1.367-5.84a56.772,56.772,0,0,0-1.993-7.764c-2.072-5.737-5.942-10.614-9.68-15.333-2.584-3.258-4.281-7.349-5.923-11.3a51.958,51.958,0,0,0-4.982-9.967c-1.336-1.9-2.836-3.751-4.288-5.546-3.015-3.733-6.136-7.6-8.036-12.113l1.148-.484c1.833,4.357,4.9,8.146,7.86,11.812,1.463,1.811,2.975,3.682,4.337,5.613a53.029,53.029,0,0,1,5.115,10.206c1.608,3.876,3.273,7.883,5.748,11.007,3.8,4.8,7.735,9.758,9.876,15.683a58.013,58.013,0,0,1,2.043,7.934c.393,1.9.8,3.867,1.342,5.748,1.7,5.9,4.8,11.332,7.805,16.586a231.479,231.479,0,0,0,13.954,22.4l.285.384c2.217,3.012,4.732,6.426,4.75,10.371a5.09,5.09,0,0,1-1.527,3.98,4.077,4.077,0,0,1-3.008,1c-.036-.005-.073-.011-.107-.018" transform="translate(107.276)"/><path class="g" d="M169.214,36.595a1.231,1.231,0,0,0-.475,0,2.537,2.537,0,0,0-1.371.93,10.2,10.2,0,0,0-1.639,3.739c-.335,1.169-.707,2.33-1.079,3.492a61.577,61.577,0,0,0-1.922,6.912c-.3,1.516,1.782,5.5,2.66,6.665,2.629-1.229,5.8-3.989,6.6-6.418a13.8,13.8,0,0,0-.111-8.436c-.2-.624-.43-1.238-.664-1.853a18.955,18.955,0,0,1-1.139-3.775l-.02-.134a2.2,2.2,0,0,0-.165-.671.954.954,0,0,0-.68-.448m-4.1,23.21-.29-.245c-.892-.752-3.76-5.884-3.322-8.134a63.59,63.59,0,0,1,1.956-7.053c.368-1.15.736-2.3,1.07-3.456a11.272,11.272,0,0,1,1.875-4.19,3.7,3.7,0,0,1,2.1-1.36,2.34,2.34,0,0,1,2.495,1.1,3.282,3.282,0,0,1,.292,1.066l.02.125a17.73,17.73,0,0,0,1.07,3.525c.243.636.482,1.273.689,1.92a15.082,15.082,0,0,1,.105,9.207c-.988,2.97-4.77,6.128-7.709,7.35Z" transform="translate(131.284 28.723)"/><path class="g" d="M188.862,162.887a31.062,31.062,0,0,1-11.655-4.513,24.325,24.325,0,0,1-8.206-10.5c-3.583-8.319-3.728-17.212-3.864-25.813-.054-3.372-.111-6.861-.372-10.264-.172-2.239-.491-4.533-.8-6.752a69.008,69.008,0,0,1-.937-11.337,59.685,59.685,0,0,1,.923-7.845,51.844,51.844,0,0,0,.919-8.614,25.6,25.6,0,0,0-7.314-17.685l.888-.878a26.864,26.864,0,0,1,7.673,18.554,52.981,52.981,0,0,1-.936,8.824,58.9,58.9,0,0,0-.908,7.68,68.149,68.149,0,0,0,.928,11.129c.308,2.239.629,4.553.805,6.828.267,3.443.321,6.95.375,10.34.136,8.48.276,17.246,3.762,25.338a23.1,23.1,0,0,0,7.773,9.974c6.027,4.192,15.5,5.394,21.781,5.153a13.011,13.011,0,0,0,5.146-1.079c6.683-3.155,9.174-11.887,11.178-18.9.279-.977.549-1.922.821-2.821a4.257,4.257,0,0,0-.611-4.446c-1.01-1.77-2-3.563-2.992-5.361-4.484-8.119-9.12-16.517-15.789-23.068A114.935,114.935,0,0,1,188.518,96.5,121.626,121.626,0,0,1,179.1,83.583c-1.451-2.406-2.745-4.941-4-7.39l-2.827-5.53,1.11-.569L176.2,75.6c1.255,2.453,2.538,4.968,3.967,7.336a120.153,120.153,0,0,0,9.292,12.743,114.807,114.807,0,0,0,8.866,10.253c6.8,6.679,11.481,15.158,16.006,23.357.99,1.793,1.978,3.581,2.983,5.345a5.42,5.42,0,0,1,.722,5.425c-.27.894-.538,1.833-.816,2.8-2.071,7.258-4.649,16.291-11.843,19.689a14.177,14.177,0,0,1-5.632,1.2,48.855,48.855,0,0,1-10.886-.863" transform="translate(128.113 47.717)"/><path class="g" d="M222.416,45.142a67.456,67.456,0,0,1,2.221,18.124,105.874,105.874,0,0,1-1.472,13.316l-13.1,85.113c-2.263,14.643-4.4,28.486-.241,42.28a21.739,21.739,0,0,0,10.708-9.76c1.92-3.623,2.783-7.8,3.5-11.771,1.92-10.61,3.2-21.5,4.435-32.029a144.168,144.168,0,0,1,5.947-27.231,107.607,107.607,0,0,1,6.413-14.71c2.865-5.762,5.826-11.72,7.314-18.033l.132-.568c3.3-13.99,6.707-28.455,3.294-42.26-.611-2.475-2.535-8.275-7.124-8.766a9.642,9.642,0,0,0-4.691,1.019c-1.237.533-2.448,1.111-3.648,1.684-4.5,2.15-8.765,4.19-13.689,3.592M209.03,205.623l-.2-.629c-4.515-14.287-2.321-28.471,0-43.489l13.1-85.113a104.173,104.173,0,0,0,1.46-13.156,67.229,67.229,0,0,0-2.415-18.7l-.247-.952.966.183c4.932.93,9.276-1.146,13.874-3.343,1.213-.582,2.44-1.168,3.693-1.7a10.717,10.717,0,0,1,5.312-1.115c5.383.564,7.53,6.98,8.2,9.707,3.485,14.1.042,28.711-3.291,42.846l-.132.566c-1.519,6.455-4.513,12.478-7.408,18.3a106.779,106.779,0,0,0-6.346,14.538,142.942,142.942,0,0,0-5.893,27c-1.24,10.547-2.518,21.455-4.448,32.1-.736,4.067-1.623,8.353-3.626,12.133a22.974,22.974,0,0,1-11.985,10.589Z" transform="translate(167.668 30.548)"/><path class="g" d="M219.2,63.119c-4.119-5.066-8.442-10.353-12.764-15.636-4.264-5.216-8.529-10.433-12.6-15.431C188.6,25.6,183.17,18.924,180.021,10.992l1.159-.459c3.082,7.753,8.445,14.351,13.631,20.729,4.067,5,8.331,10.213,12.6,15.43,4.322,5.285,8.645,10.572,12.764,15.64Z" transform="translate(146.377 8.565)"/><path class="g" d="M214.1,56.42l-1.077-.626a8.7,8.7,0,0,0,.816-6.116,21.351,21.351,0,0,0-2.8-5.169l-4.364-6.54,1.971.881a28.774,28.774,0,0,1,13.446,13.024,81.01,81.01,0,0,0-1.128-13.16,31.435,31.435,0,0,0-6.273-14.327A38.489,38.489,0,0,0,205.846,17l.682-1.046a39.67,39.67,0,0,1,9.124,7.637,32.628,32.628,0,0,1,6.536,14.886,93.588,93.588,0,0,1,1.2,15.493l.029,1.327-1.048.223-.221-.5a28.12,28.12,0,0,0-11.916-13.965l1.842,2.76a22.265,22.265,0,0,1,2.954,5.481,9.944,9.944,0,0,1-.926,7.122" transform="translate(167.376 12.973)"/><path class="g" d="M285.9,50.45c-.033-.005-.063-.013-.094-.02-2.294-.484-4.065-2-5.778-3.474a25.893,25.893,0,0,0-2.665-2.094,3.02,3.02,0,0,0-1.385-.586c-.939-.076-1.748.673-2.607,1.467a12.617,12.617,0,0,1-1.291,1.093,2.144,2.144,0,0,1-1.164.446c-.573.016-1.392-.277-1.994-1.757-1.345-3.3-3.492-14.886-3.429-18.5l1.246.02c-.06,3.438,2.062,14.886,3.338,18.015.252.62.553.974.81.979a1.035,1.035,0,0,0,.475-.221,11.563,11.563,0,0,0,1.162-.986c.97-.9,2.069-1.916,3.556-1.795a4.232,4.232,0,0,1,1.965.783,26.789,26.789,0,0,1,2.8,2.194c1.668,1.431,3.244,2.781,5.224,3.2a2.618,2.618,0,0,0,2.424-.457,3.294,3.294,0,0,0,.5-2.3c0-.187,0-.373,0-.555.082-3.679-2.758-9.987-4.453-13.756a29.306,29.306,0,0,1-1.231-2.932l1.206-.328c.109.412.6,1.494,1.162,2.749,1.739,3.864,4.652,10.333,4.565,14.295l-.005.526a4.247,4.247,0,0,1-.856,3.173,3.747,3.747,0,0,1-3.479.827" transform="translate(215.871 21.971)"/><path class="g" d="M260.239,142.245c-1.285-17.264-1.833-35.06-1.628-52.894a125.644,125.644,0,0,1,1.273-18.92c1.715-10.378,5.764-20.205,9.677-29.711l1.155.475c-3.889,9.441-7.909,19.2-9.6,29.44a124.227,124.227,0,0,0-1.256,18.731c-.207,17.8.341,35.559,1.623,52.785Z" transform="translate(210.246 33.11)"/><path class="g" d="M275.335,69.61c-3.362,11.932-5.824,24.278-8.2,36.224-.671,3.36-1.422,6.757-2.149,10.043-1.356,6.143-2.761,12.5-3.682,18.824a32.174,32.174,0,0,0-.174,10.832,18.824,18.824,0,0,0,18.224,14.717c2.246-.022,3.871-.578,4.834-1.648a7.678,7.678,0,0,0,1.454-3.534c3.126-13.965,3.233-29.175.317-45.208A306.84,306.84,0,0,0,275.335,69.61m.335,91.548A20.191,20.191,0,0,1,259.9,145.775a33.181,33.181,0,0,1,.165-11.254c.926-6.371,2.335-12.748,3.7-18.914.723-3.28,1.472-6.67,2.141-10.016,2.433-12.206,4.95-24.829,8.429-37.029q.443-1.553.9-3.113c2.334-8,4.747-16.264,3.88-24.511l1.24-.131c.892,8.493-1.556,16.88-3.924,24.992-.161.557-.325,1.111-.486,1.668,4.179,12.781,8.427,26.733,11.234,42.169,2.944,16.2,2.836,31.575-.326,45.7a8.784,8.784,0,0,1-1.746,4.094c-1.2,1.344-3.137,2.036-5.748,2.065a18.441,18.441,0,0,1-3.691-.341" transform="translate(210.989 33.181)"/><path class="g" d="M293.228,145.363a3.208,3.208,0,0,1-1.538-.783c-1.392-1.244-1.982-3.615-2.069-5.419-.39-8.106.914-16.878,3.98-26.818a125.939,125.939,0,0,1,47.061-65.107c.569-.406,1.177-.859,1.809-1.336,3.021-2.265,6.779-5.084,10.273-5.282l.071,1.246c-3.119.178-6.709,2.87-9.6,5.035-.642.482-1.257.943-1.835,1.354a124.685,124.685,0,0,0-46.592,64.458c-3.024,9.8-4.308,18.43-3.927,26.388.073,1.483.548,3.563,1.655,4.549a1.9,1.9,0,0,0,1.461.52c3.521-.232,7.06-.321,10.485-.406,9.463-.238,18.4-.461,27.269-3.47a76.1,76.1,0,0,0,13.979-5.844c5.735-3.327,10.534-8.108,14.075-11.9,7.374-7.9,12.808-15.455,16.614-23.092a58.065,58.065,0,0,0,6.5-27.371c-.056-1.855-.564-8-4.727-9.169l-.466-.129.011-.484c.054-2.665,1.338-6.027,2.578-9.28,1.286-3.362,2.613-6.839,2.547-9.428l1.247-.031c.071,2.834-1.3,6.429-2.629,9.9-1.13,2.959-2.3,6.014-2.475,8.4,4.415,1.63,5.082,7.613,5.16,10.175a59.349,59.349,0,0,1-6.631,27.967c-3.858,7.746-9.361,15.4-16.82,23.386-3.6,3.856-8.484,8.719-14.358,12.132a77.194,77.194,0,0,1-14.206,5.945c-9.049,3.07-18.078,3.3-27.639,3.534-3.41.087-6.939.176-10.433.406a3.3,3.3,0,0,1-.839-.051" transform="translate(235.441 33.027)"/><path class="g" d="M403.458,114.01a8.7,8.7,0,0,1-1.4-.4c-2.781-1.059-4.7-3.372-6.553-5.612-.45-.548-.9-1.093-1.362-1.617-.538-.609-1.1-1.2-1.666-1.79a29.1,29.1,0,0,1-3.523-4.2,25.329,25.329,0,0,1-2.984-7.715c-3.249-13.094-2.266-32.045.02-44.115l1.227.234c-2.265,11.938-3.24,30.667-.038,43.58A24.261,24.261,0,0,0,390,99.717a28.281,28.281,0,0,0,3.38,4.016c.575.6,1.151,1.2,1.7,1.826.468.535.928,1.09,1.385,1.645,1.75,2.114,3.561,4.3,6.032,5.244,3.055,1.157,6.886.216,9.787-2.4s4.52-6.357,5.6-9.319c3.483-9.506,4.569-19.913,5.175-28.845.372-5.468.544-11.216-1.777-16.077l1.126-.54c2.451,5.135,2.281,11.067,1.9,16.7-.615,9.018-1.713,19.534-5.249,29.189-1.135,3.1-2.834,7.015-5.94,9.816a11.492,11.492,0,0,1-9.662,3.039" transform="translate(312.143 39.488)"/><path class="g" d="M422.23,85.394a3.042,3.042,0,0,1-1.947-1.991,31.589,31.589,0,0,1-1.623-6.848c-.138-.867-.277-1.735-.442-2.593a40.065,40.065,0,0,0-7.49-16.7l.992-.758a41.35,41.35,0,0,1,7.724,17.225c.169.87.308,1.751.448,2.633a30.856,30.856,0,0,0,1.548,6.582c.277.7.829,1.353,1.237,1.206a1.372,1.372,0,0,0,.477-.439c1.909-2.43,2.676-5.439,3.487-8.625.31-1.211.627-2.462,1.012-3.666,2.025-6.333,5.989-11.7,9.823-16.893l1,.742C434.7,60.375,430.8,65.658,428.839,71.8c-.374,1.168-.687,2.4-.99,3.594-.807,3.171-1.643,6.451-3.717,9.087a2.392,2.392,0,0,1-1.024.839,1.606,1.606,0,0,1-.878.076" transform="translate(333.968 44.334)"/><path class="g" d="M441.765,180.87a7.442,7.442,0,0,1-5.216-3.43c-2.881-5.118,1.9-11.667,5.392-16.45.613-.841,1.177-1.614,1.635-2.3a98.853,98.853,0,0,0,6.246-11.363q.585-1.18,1.169-2.359a244.3,244.3,0,0,1,26.267-41.431c7.47-9.513,24.143-27.646,39.243-35.27l.564,1.113c-14.906,7.526-31.418,25.5-38.826,34.93a242.99,242.99,0,0,0-26.132,41.217q-.585,1.172-1.166,2.353a99.508,99.508,0,0,1-6.33,11.5c-.466.694-1.039,1.481-1.663,2.335-3.293,4.509-7.8,10.685-5.314,15.1,1.151,2.049,3.71,2.885,5.715,2.979,3.284.158,6.511-1.126,9.631-2.364l1.017-.4c3.356-1.318,6.832-2.471,10.192-3.588,4.5-1.5,9.16-3.042,13.555-4.99,8.819-3.907,17.6-9.856,26.854-18.18,10.041-9.038,22.251-24.024,23.395-44.1.237-4.177-.805-9.091-1.909-14.295-1.483-7-3.017-14.238-1.839-21.03l1.229.214c-1.137,6.554.372,13.674,1.831,20.557,1.12,5.289,2.179,10.282,1.931,14.625-1.166,20.5-13.589,35.758-23.8,44.953-9.35,8.415-18.24,14.432-27.182,18.394-4.451,1.973-9.134,3.528-13.665,5.033-3.347,1.11-6.806,2.259-10.134,3.565l-1.01.4c-3.244,1.287-6.6,2.62-10.152,2.451a10.819,10.819,0,0,1-1.525-.183" transform="translate(354.244 55.511)"/><path class="g" d="M325.958,81.4l-.994-.756c2.821-3.693,6.511-6.609,10.079-9.43,1.4-1.106,2.845-2.248,4.215-3.418,6.043-5.173,9.223-10.2,9.722-15.377l1.242.121c-.529,5.51-3.851,10.81-10.155,16.2-1.385,1.188-2.841,2.337-4.252,3.45-3.508,2.772-7.136,5.639-9.858,9.207" transform="translate(264.232 42.626)"/><path class="g" d="M116.339,102.06c-.5-.78-.927-1.6-1.34-2.4a26.974,26.974,0,0,0-1.416-2.5c-1.9-2.848-5.122-5.222-9.588-7.053-1.994-.818-4.094-1.49-6.125-2.143C96,87.365,94.058,86.741,92.188,86a45.738,45.738,0,0,1-13.219-8.009l.816-.943a44.566,44.566,0,0,0,12.862,7.793c1.831.722,3.75,1.338,5.6,1.933,2.052.658,4.177,1.34,6.215,2.176,4.767,1.955,8.088,4.413,10.153,7.517a28.048,28.048,0,0,1,1.487,2.618c.4.771.814,1.567,1.284,2.3Z" transform="translate(64.211 62.652)"/><path class="g" d="M68.879,156.135a37.089,37.089,0,0,1,5.1-12.951,24.2,24.2,0,0,1,4.944-5.8c2.781-2.292,6.235-3.724,9.285-4.988a9.358,9.358,0,0,1,3.633-.943l-.011,1.246a8.422,8.422,0,0,0-3.144.85,34.509,34.509,0,0,0-8.969,4.8,22.831,22.831,0,0,0-4.683,5.5,35.823,35.823,0,0,0-4.933,12.51Z" transform="translate(56.006 106.886)"/><path class="g" d="M459.714,129.956l-1.048-.678a94.872,94.872,0,0,1,16.958-19.647c3.139-2.763,6.507-5.351,9.762-7.853a151.975,151.975,0,0,0,11.847-9.755,25.515,25.515,0,0,0,5.671-7.1c1.719-3.546,1.991-7.762,2.232-11.482l1.246.082c-.248,3.833-.531,8.179-2.355,11.945a26.638,26.638,0,0,1-5.936,7.463,153.9,153.9,0,0,1-11.943,9.838c-3.242,2.489-6.591,5.064-9.7,7.8a93.439,93.439,0,0,0-16.733,19.388" transform="translate(372.947 59.716)"/></g></g><g transform="translate(1772.207 529.532) rotate(-95)"><g class="h"><path class="g" d="M153.485,145.571c-5.041-6.465-6.484-14.749-7.529-22.681-1.67-12.687-3.052-27.59-.625-41.947.779-4.609,2.155-10.506,5.905-15.234,3.919-4.938,9.984-7.547,15.45-6.655,4.373.717,7.837,3.416,11.188,6.026.818.638,1.634,1.274,2.458,1.875.958.7,1.948,1.367,2.936,2.032a43.148,43.148,0,0,1,6.367,4.885,35.612,35.612,0,0,1,6.568,9.91c8.482,17.312,12.44,43.89,12.527,61.261l-1.862.008c-.084-17.184-3.987-43.454-12.353-60.524a33.987,33.987,0,0,0-6.222-9.431,41.818,41.818,0,0,0-6.1-4.671c-1.009-.679-2.021-1.358-3-2.071-.841-.615-1.672-1.261-2.5-1.91-3.164-2.465-6.435-5.014-10.322-5.65-4.782-.795-10.145,1.562-13.648,5.978s-4.807,10.042-5.553,14.451c-2.39,14.138-1.02,28.887.633,41.451,1.014,7.7,2.4,15.728,7.18,21.847Z" transform="translate(84.41 34.509)"/><path class="g" d="M115.817,133.58l-1.68-.758c4.07-8.116,8.278-16.508,9.407-25.558.213-1.721.322-3.515.427-5.253.279-4.623.568-9.406,2.855-13.628a3.415,3.415,0,0,1,1.264-1.443c1.683-.96,3.566.255,4.679,1.9a43.4,43.4,0,0,1,4.325,9.069c.449,1.167.9,2.335,1.386,3.483A56.825,56.825,0,0,0,154.2,122.56l-1.236,1.321a58.608,58.608,0,0,1-16.213-21.833c-.495-1.166-.95-2.351-1.407-3.535a42.352,42.352,0,0,0-4.14-8.719c-.606-.893-1.6-1.661-2.156-1.343a1.945,1.945,0,0,0-.571.738c-2.106,3.889-2.371,8.278-2.652,12.923-.106,1.762-.216,3.585-.438,5.358-1.163,9.339-5.439,17.866-9.574,26.11" transform="translate(66.895 50.756)"/><path class="g" d="M30.2,176.532l-1.14-1.4c19.687-14.478,38.75-43.886,46.909-58.982a333.26,333.26,0,0,0,26.535-64.289c.349-1.188.692-2.381,1.036-3.57a135.54,135.54,0,0,1,6-17.7c.485-1.091,1.1-2.339,1.773-3.7,3.535-7.149,8.378-16.939,3.48-22.4-2.273-2.536-6.249-3.006-9.215-2.595-4.857.668-9.217,3.32-13.434,5.886l-1.369.83c-4.539,2.733-9.3,5.274-13.9,7.729-6.17,3.291-12.551,6.7-18.434,10.59-11.8,7.807-22.975,18.435-34.149,32.493C12.159,74.7-1.453,98.8,2.586,126.983c.841,5.865,3.765,12.406,6.863,19.334,4.165,9.321,8.474,18.955,8.681,28.705l-1.86.035c-.2-9.409-4.436-18.886-8.533-28.05-3.147-7.041-6.119-13.69-6.993-19.787C-3.383,98.446,10.464,73.9,22.805,58.373c11.3-14.21,22.6-24.964,34.57-32.88,5.957-3.941,12.379-7.367,18.587-10.681,4.579-2.444,9.315-4.972,13.815-7.68l1.359-.826C95.521,3.64,100.056.883,105.307.16c4.47-.619,8.554.577,10.9,3.2,5.672,6.329.536,16.714-3.213,24.294-.66,1.334-1.266,2.562-1.743,3.634a134.22,134.22,0,0,0-5.915,17.476c-.346,1.194-.688,2.389-1.04,3.581a335.1,335.1,0,0,1-26.667,64.621c-8.232,15.222-27.482,44.9-47.427,59.57" transform="translate(0 0)"/><path class="g" d="M9.744,138.093c-.726-5.393-1.551-11.5.049-17.222,1.285-4.592,4.041-8.625,6.571-11.969A220.308,220.308,0,0,1,31.053,92.02c4.035-4.332,8.206-8.812,11.981-13.45A130.721,130.721,0,0,0,62.018,47.132l1.727.658A132.453,132.453,0,0,1,44.506,79.648c-3.811,4.684-8.005,9.187-12.061,13.539a219.05,219.05,0,0,0-14.57,16.743c-2.43,3.213-5.077,7.079-6.284,11.393-1.507,5.385-.707,11.315,0,16.546Z" transform="translate(5.2 27.624)"/></g></g><g transform="translate(503.784 510.534)"><g class="b" transform="translate(0 76.571) rotate(-11)"><g class="c" transform="translate(0 0)"><path class="d" d="M183.858,103.068l1,.978a80.316,80.316,0,0,1,25.37-18.01c9.161-4,19.2-6.1,30.61-6.482q2.337-.08,4.673-.078c19.847,0,39.621,4.073,59.134,8.224,11.2,2.38,21.916,3.37,33.037,5.03a1.4,1.4,0,0,0,1.555-1.754,414.332,414.332,0,0,1-13.9-85.75,1.4,1.4,0,0,0-1.795-1.257,112.12,112.12,0,0,1-32.06,4.358,191.708,191.708,0,0,1-38.564-4.393C247.131,2.738,241.3,1.35,235.3.611a82.143,82.143,0,0,0-25.916.945c-5.952,1.18-11.965,3.08-17.076,6.683a26.63,26.63,0,0,0-6.646,6.693,20.923,20.923,0,0,0-3.51,8.774l1.385.2,1.4-.09a22.286,22.286,0,0,0-5.64-13.047A28.8,28.8,0,0,0,167.44,2.624,44.035,44.035,0,0,0,152.385.253a94.116,94.116,0,0,0-12.514.97,195.535,195.535,0,0,0-21.6,4.159c-5.528,1.392-10.926,3-16.39,3.724a71.558,71.558,0,0,1-9.492.554c-2.4,0-4.825-.076-7.252-.167C71.212,8.98,57.082,7.939,44.779,2.13a1.4,1.4,0,0,0-1.944.893c-7.79,28.285-12.562,57.332-15.677,86.458a1.4,1.4,0,0,0,1.338,1.545c2.479.1,5.448.168,8.835.168A237.025,237.025,0,0,0,62.786,89.82,198.268,198.268,0,0,0,87.35,85.6a158.465,158.465,0,0,1,23.087-3.724c7.146-.627,13.58-1.163,19.71-1.163a67.9,67.9,0,0,1,24.969,4.257,72.975,72.975,0,0,1,27.712,19.046,1.4,1.4,0,0,0,2.029.031l-1-.978,1.029-.947a75.76,75.76,0,0,0-28.78-19.769,70.756,70.756,0,0,0-25.96-4.438c-6.293,0-12.8.547-19.955,1.174a161.153,161.153,0,0,0-23.449,3.78,195.257,195.257,0,0,1-24.258,4.17A234.229,234.229,0,0,1,37.33,88.4c-3.346,0-6.278-.072-8.729-.165l-.053,1.4,1.391.148c3.1-29.021,7.856-57.918,15.593-86.012l-1.35-.371-.6,1.266c12.949,6.1,27.466,7.1,41.444,7.625,2.437.092,4.893.17,7.357.17a74.6,74.6,0,0,0,9.863-.577c5.754-.77,11.252-2.415,16.7-3.784a192.721,192.721,0,0,1,21.3-4.1,91.61,91.61,0,0,1,12.139-.945,41.318,41.318,0,0,1,14.106,2.2A26,26,0,0,1,177.173,12.6a19.5,19.5,0,0,1,4.966,11.4,1.4,1.4,0,0,0,2.78.111,18.123,18.123,0,0,1,3.052-7.6,23.848,23.848,0,0,1,5.947-5.982c4.633-3.273,10.26-5.09,16.007-6.225a79.309,79.309,0,0,1,25.032-.912c5.8.711,11.556,2.075,17.4,3.284a194.439,194.439,0,0,0,39.13,4.452,114.871,114.871,0,0,0,32.857-4.475l-.4-1.341-1.4.083a417.161,417.161,0,0,0,13.99,86.327l1.349-.371.207-1.383c-11.222-1.675-21.879-2.662-32.869-5-19.524-4.149-39.485-8.282-59.716-8.285q-2.381,0-4.767.08a84.81,84.81,0,0,0-31.636,6.714,83.093,83.093,0,0,0-26.25,18.618l1,.978,1.029-.947Z" transform="translate(15.185 -0.001)"/><path class="d" d="M341.625,9.991C343.836,28.244,352,45.037,359.776,61.72c3.9,8.341,7.7,16.654,10.653,25.094A94.8,94.8,0,0,1,376,112.665l1.4-.081.393-1.341c-29.637-8.69-58.835-19.9-89.6-24.807a181.306,181.306,0,0,0-28.494-2.345q-4.3,0-8.593.234a123.527,123.527,0,0,0-36.929,7.46c-2.551.964-4.181,1.65-5.766,2.425s-3.1,1.623-5.465,2.921c-.978.536-2.654,1.48-4.405,2.638a26.369,26.369,0,0,0-4.9,3.986l1.042.936.809-1.14c-11.823-8.394-24.152-17.106-38.6-20.574a78.856,78.856,0,0,0-16.672-1.94q-1.359-.028-2.715-.028c-23.621,0-46.663,6.571-69.027,13.529-19.934,6.2-40.2,12.4-59.527,20.553l.543,1.288,1.391.153C14.123,86.975,28.41,59.757,40.858,32.3A92.466,92.466,0,0,0,44.8,22.522a34.24,34.24,0,0,0,1.82-10.476c0-.541-.017-1.082-.051-1.626a1.4,1.4,0,0,0-2.793.176c.031.483.048.967.048,1.45a31.543,31.543,0,0,1-1.687,9.619,89.7,89.7,0,0,1-3.822,9.478C25.929,58.5,11.441,85.961,8.1,116.225a1.4,1.4,0,0,0,1.934,1.441c19.149-8.08,39.328-14.252,59.27-20.458,22.322-6.951,45.1-13.407,68.2-13.4q1.326,0,2.654.028a76.188,76.188,0,0,1,16.081,1.862c13.75,3.285,25.819,11.729,37.63,20.134a1.4,1.4,0,0,0,1.854-.207,23.636,23.636,0,0,1,4.358-3.521c1.648-1.092,3.264-2,4.2-2.518,2.383-1.305,3.862-2.133,5.348-2.86s3.011-1.372,5.525-2.32a120.766,120.766,0,0,1,36.1-7.285q4.215-.232,8.439-.229A178.514,178.514,0,0,1,287.747,89.2c30.383,4.84,59.474,15.989,89.254,24.729a1.4,1.4,0,0,0,1.792-1.424,97.576,97.576,0,0,0-5.723-26.613c-4.52-12.907-10.912-25.342-16.551-37.871S346,22.879,344.4,9.656a1.4,1.4,0,1,0-2.776.335" transform="translate(4.526 4.711)"/><path class="d" d="M368.464,18.009c.114,18.009,6.311,35.2,13.1,52.216s14.2,33.858,16.955,51.076l1.382-.221.324-1.36c-19.545-4.681-39.334-9.417-59.6-10.167q-3.05-.115-6.092-.111c-20.766,0-41.3,3.624-61.79,4.846q-7.967.477-15.953.477-11.192,0-22.356-.937a112.23,112.23,0,0,1-18.188-2.821,53.811,53.811,0,0,1-16.5-6.976,1.4,1.4,0,0,0-1.45-.055c-5.1,2.84-10.815,3.823-16.824,3.825-6.451,0-13.2-1.146-19.71-2.275-17.982-3.117-36.345-5.592-54.64-5.592a165.993,165.993,0,0,0-31.891,2.9c-12.518,2.447-24.778,6.6-37.021,10.285s-24.463,6.92-36.881,7.6l.076,1.4,1.4.078c.97-17.469,5.886-34.3,11.472-51.147S26.093,37.358,29.621,19.853a1.4,1.4,0,1,0-2.743-.552c-3.465,17.218-9.662,33.961-15.266,50.865S1,104.141,0,122.037a1.4,1.4,0,0,0,1.472,1.475c12.8-.7,25.235-4.006,37.536-7.711s24.478-7.823,36.75-10.218a163.222,163.222,0,0,1,31.355-2.852c18.043,0,36.251,2.445,54.163,5.551,6.515,1.127,13.41,2.314,20.187,2.314,6.3,0,12.535-1.034,18.183-4.177l-.68-1.221-.77,1.166a56.625,56.625,0,0,0,17.351,7.354,115.248,115.248,0,0,0,18.645,2.9q11.269.947,22.59.947,8.065,0,16.12-.482c20.708-1.244,41.183-4.846,61.623-4.842q2.994,0,5.989.108c19.9.734,39.512,5.408,59.056,10.092a1.4,1.4,0,0,0,1.706-1.581c-2.84-17.706-10.351-34.715-17.118-51.67s-12.8-33.834-12.9-51.2a1.4,1.4,0,0,0-2.8.017" transform="translate(0 9.285)"/><path class="d" d="M126.752,66.438q.028.648.028,1.3,0,1.127-.084,2.252c-.031.4-.072.853-.073,1.35a4.816,4.816,0,0,0,.577,2.456l1.21-.7-1.4-.011A48.643,48.643,0,0,1,126.756,78a1.4,1.4,0,1,0,2.782.282,51.443,51.443,0,0,0,.271-5.177,1.379,1.379,0,0,0-.186-.71,2.1,2.1,0,0,1-.2-1.059c0-.332.031-.719.064-1.138q.094-1.23.094-2.464c0-.472-.009-.945-.031-1.417a1.4,1.4,0,1,0-2.794.122" transform="translate(70.823 36.343)"/><path class="d" d="M126.457,15.228q.412,14.539.41,29.086,0,8.7-.147,17.405c-.048,2.93-.069,5.819-.069,8.687,0,8.333.167,16.491.262,24.963a1.4,1.4,0,1,0,2.8-.031c-.1-8.489-.262-16.636-.262-24.932,0-2.855.02-5.729.069-8.64q.147-8.724.147-17.452,0-14.584-.412-29.166a1.4,1.4,0,1,0-2.8.08" transform="translate(70.73 7.712)"/><path class="d" d="M18.941,23.511A36.068,36.068,0,0,0,29.1,19.287a70.357,70.357,0,0,0,6.786-4.9,1.4,1.4,0,0,0-1.728-2.2A67.861,67.861,0,0,1,27.646,16.9a33.342,33.342,0,0,1-9.372,3.9,1.4,1.4,0,1,0,.667,2.715" transform="translate(9.625 6.647)"/><path class="d" d="M222.642,10.811,227.4,14.7c1.353,1.107,2.733,2.238,4.226,3.279a35.625,35.625,0,0,0,10.4,4.974,1.4,1.4,0,1,0,.781-2.685,32.836,32.836,0,0,1-9.582-4.583c-1.374-.959-2.7-2.043-4.054-3.15q-2.376-1.946-4.754-3.891a1.4,1.4,0,0,0-1.771,2.164" transform="translate(124.242 4.658)"/></g></g></g><g class="b" transform="translate(1090.848 361.387) rotate(11)"><g class="e"><path class="d" d="M25.577,160.012l-.53,1.533a4.424,4.424,0,0,0,1.114.207c.361.029.744.039,1.2.055.117,0,.233.006.35.006a22.5,22.5,0,0,0,6.5-1.253c2.131-.673,4.183-1.461,5.817-1.956q6.38-1.944,12.57-4.457a147.519,147.519,0,0,0,23.119-11.852c16.439-10.362,30.528-23.729,46.067-34.776,5.685-4.051,11.613-7.766,18.1-9.384a33.6,33.6,0,0,1,8.175-.99,50.145,50.145,0,0,1,18.392,3.992,145.776,145.776,0,0,1,17.878,8.959,2.014,2.014,0,0,0,.988.263,2,2,0,0,0,1.992-1.992,2.019,2.019,0,0,0-.282-1.02v0C171.6,81.2,158.209,53.465,145.559,25.793a1.629,1.629,0,0,0-.26-.4l-.147-.166a1.563,1.563,0,0,0-.367-.309,62.408,62.408,0,0,0-32.493-9.076,60.831,60.831,0,0,0-15.238,1.92C88.7,19.925,81.076,23.744,73.809,28.166s-14.188,9.458-21.142,14.1a124.775,124.775,0,0,1-20.3,11.368,55.9,55.9,0,0,1-21.776,4.892q-1.348,0-2.7-.084l-.127,0a2.005,2.005,0,0,0-1.4.572,1.972,1.972,0,0,0-.4,2.257h0A7.322,7.322,0,0,1,6.328,62.4c.246.936.5,2.244.724,3.668.344,2.141.643,4.56.874,6.558.116,1,.214,1.9.293,2.6s.136,1.215.182,1.523q1.872,12.294,3.911,24.56,2.4,14.427,5.029,28.815,1.315,7.193,2.69,14.376c.4,2.105,1.105,4.349,1.692,6.538a24.933,24.933,0,0,1,1.055,6.023l.013.2.009.077.035.191c.117.47.2.863.282,1.212a6.865,6.865,0,0,0,.452,1.484,2.611,2.611,0,0,0,.589.8,2.552,2.552,0,0,0,.889.519l.53-1.533.532-1.533-.234.678.545-.449a.786.786,0,0,0-.311-.228l-.234.678.545-.449-.448.368.51-.28-.062-.088-.448.368.51-.28-.169.092.175-.082-.006-.01-.169.092.175-.082a.9.9,0,0,1-.049-.144c-.09-.295-.218-.964-.452-1.913l-1.576.39,1.611-.2-.009-.077-1.611.2,1.622-.006a27.722,27.722,0,0,0-1.166-6.856c-.61-2.264-1.289-4.469-1.638-6.305q-1.372-7.171-2.684-14.35-2.627-14.362-5.021-28.764-2.035-12.242-3.9-24.515c-.019-.124-.061-.47-.113-.926-.183-1.618-.517-4.771-.949-7.837-.217-1.533-.457-3.047-.722-4.357-.134-.657-.273-1.263-.423-1.8a9.332,9.332,0,0,0-.514-1.462l-1.149.543H9.01a1.28,1.28,0,0,0-.121-.543l-1.149.543h0l.889.906a1.276,1.276,0,0,0,.377-.906H7.744l.889.906-.87-.887v1.243a1.25,1.25,0,0,0,.87-.355l-.87-.887v.026l-.077,1.215h.077V60.469l-.077,1.215q1.456.091,2.9.09a59.118,59.118,0,0,0,23.043-5.149A127.968,127.968,0,0,0,54.472,44.968c7.023-4.7,13.909-9.7,21.025-14.029S89.947,22.952,97.867,20.9a57.568,57.568,0,0,1,14.425-1.816,59.148,59.148,0,0,1,30.794,8.6l.85-1.383-1.216,1.075.147.168,1.217-1.075-1.475.675c12.669,27.714,26.1,55.545,41.626,81.856v0l1.072-.634h-1.244a1.251,1.251,0,0,0,.172.634l1.072-.634h.009l-.89-.886a1.256,1.256,0,0,0-.363.886h1.253l-.89-.886.891.887v-1.254a1.256,1.256,0,0,0-.891.367l.891.887v-.013l.615-1.082a1.26,1.26,0,0,0-.615-.159v1.241l.615-1.082a149.319,149.319,0,0,0-18.284-9.153,53.3,53.3,0,0,0-19.59-4.22,36.792,36.792,0,0,0-8.962,1.086c-7.169,1.8-13.412,5.776-19.2,9.887-15.78,11.236-29.83,24.553-45.915,34.676a144.45,144.45,0,0,1-22.611,11.59q-6.046,2.453-12.3,4.359c-1.8.55-3.836,1.332-5.847,1.966a19.559,19.559,0,0,1-5.519,1.1c-.084,0-.165,0-.246,0-.459-.014-.815-.026-1.053-.045-.118-.01-.207-.02-.259-.029l-.052-.01h0l-.051.17.059-.168-.009,0-.051.17.059-.168Z" transform="translate(2.564 7.046)"/><path class="d" d="M103.586,33.162c-.016-.17-.023-.34-.023-.506a7.749,7.749,0,0,1,.865-3.329,23.16,23.16,0,0,1,2.119-3.415,67.86,67.86,0,0,1,8.911-10.329A35.6,35.6,0,0,1,126.5,8.431,48.785,48.785,0,0,1,139.462,5.7a140.342,140.342,0,0,1,14.2-.72q4.74,0,9.469.319c10.7.72,21.507,2.7,32.532,2.709q1.608,0,3.222-.061c9.135-.35,18.05-2.274,26.778-4.386A1.622,1.622,0,1,0,224.9.409c-8.674,2.1-17.381,3.964-26.138,4.3q-1.547.059-3.1.056c-10.631.006-21.365-1.955-32.313-2.7q-4.837-.327-9.689-.327a143.874,143.874,0,0,0-14.524.735,51.9,51.9,0,0,0-13.827,2.939,38.81,38.81,0,0,0-12.05,7.787,70.938,70.938,0,0,0-9.346,10.82,26.174,26.174,0,0,0-2.411,3.908,10.961,10.961,0,0,0-1.185,4.73c0,.269.013.537.039.808a1.622,1.622,0,1,0,3.231-.3" transform="translate(44.619 0.162)"/><path class="d" d="M211.815,2.872C233.592,20.9,252.224,42.821,274.637,60.7c10.608,8.455,20.952,16.9,29.855,26.918l1.212-1.078.017-1.622a668.094,668.094,0,0,1-72.335-4.677c-12.768-1.523-25.675-3.44-38.694-3.443-2.544,0-5.093.074-7.646.24a84.6,84.6,0,0,0-23.15,4.625A58.064,58.064,0,0,0,143.734,93.7c-6.45,6.042-11.171,13.621-14.8,21.517a1.623,1.623,0,0,0,2.949,1.355c3.512-7.644,8.037-14.855,14.071-20.5A54.828,54.828,0,0,1,165,84.718a81.375,81.375,0,0,1,22.257-4.44c2.475-.16,4.954-.231,7.436-.231,12.7,0,25.48,1.884,38.31,3.418a670.516,670.516,0,0,0,72.686,4.7,1.621,1.621,0,0,0,1.23-2.7c-9.134-10.274-19.636-18.83-30.257-27.3-22.1-17.608-40.715-39.5-62.776-57.791a1.623,1.623,0,1,0-2.07,2.5" transform="translate(57.28 0)"/><path class="d" d="M10.284,47.747a11.809,11.809,0,0,0-2-.17,12.128,12.128,0,0,0-6.494,1.884A1.621,1.621,0,0,0,1.061,51.1C3.916,67.98,6.687,85.162,9.543,102.06c2.579,15.244,5.162,30.53,8.682,45.652,1.588,6.814,3.417,13.821,7.087,20.091a1.627,1.627,0,0,0,1.924.717c19.373-6.62,39.545-13.088,56.485-25.225,13.064-9.377,23.689-21.417,35.634-31.579a100.284,100.284,0,0,1,19.377-13.266A54.349,54.349,0,0,1,160.6,92.258q.865-.043,1.764-.042a67.982,67.982,0,0,1,12.714,1.458c4.368.854,8.706,1.956,12.584,2.934a1.618,1.618,0,0,0,1.865-.886c1.806-3.86,4.893-6.935,8.484-9.686A68.6,68.6,0,0,1,223.02,74.329,114.46,114.46,0,0,1,251.194,71.1l1.059,0c19.278.13,38.576,3.57,58.193,4.092q6.4.169,12.805.162c13.8,0,27.581-.519,41.329-1.114a1.623,1.623,0,0,0,.971-2.868c-2.67-2.224-5.229-4.68-8.013-7a1.622,1.622,0,1,0-2.078,2.492c2.668,2.225,5.227,4.68,8.011,7l1.039-1.247L364.442,71c-13.738.6-27.475,1.111-41.191,1.111q-6.363,0-12.718-.16c-19.292-.5-38.612-3.949-58.257-4.093-.361,0-.721,0-1.082,0a117.664,117.664,0,0,0-28.977,3.326,71.854,71.854,0,0,0-26.182,12.278c-3.787,2.905-7.309,6.33-9.447,10.885l1.469.689.4-1.575c-3.875-.975-8.269-2.093-12.753-2.972a71.126,71.126,0,0,0-13.338-1.518q-.973,0-1.924.046a57.586,57.586,0,0,0-23.17,6.539,103.506,103.506,0,0,0-20.016,13.689c-12.171,10.374-22.747,22.335-35.422,31.412-16.374,11.748-36.225,18.17-55.643,24.79l.524,1.536,1.4-.819c-3.374-5.752-5.158-12.431-6.727-19.187-3.489-14.994-6.064-30.215-8.641-45.459C9.889,84.637,7.119,67.456,4.261,50.558l-1.6.27L3.534,52.2a8.893,8.893,0,0,1,4.748-1.374,8.541,8.541,0,0,1,1.452.124,1.623,1.623,0,1,0,.55-3.2" transform="translate(0.462 21.162)"/><path class="d" d="M4.356,54.244l-2.849.205a1.622,1.622,0,0,0-1.5,1.807C3.863,89,3.425,122.327,11.135,154.8c2.174,9.14,4.545,17.99,9.169,26.425a1.62,1.62,0,0,0,1.8.8c3.681-.871,9.939-2.469,17.492-5.041,23.64-8.045,39.019-18.524,54.386-30.026s30.764-24.027,54.734-36.5A263.591,263.591,0,0,1,188.917,93.49c28.774-9.254,51.8-12.454,80.723-12.46q3.017,0,6.124.046c25.279.368,50.622,2.611,76.062,2.614q6.27,0,12.544-.2a1.622,1.622,0,0,0,1.306-2.505l-7.7-11.857a1.623,1.623,0,0,0-2.722,1.767l7.7,11.859,1.361-.884-.053-1.621q-6.213.206-12.435.2c-25.248,0-50.576-2.239-76.013-2.612q-3.132-.046-6.174-.046c-29.157-.006-52.674,3.264-81.717,12.617a266.582,266.582,0,0,0-40.71,17.176c-24.259,12.62-39.885,25.334-55.182,36.78s-30.258,21.636-53.486,29.55c-7.426,2.528-13.58,4.1-17.193,4.957l.374,1.579,1.422-.782c-4.385-7.993-6.7-16.527-8.857-25.613C6.689,122.1,7.1,88.9,3.235,55.878l-1.611.189.116,1.618,2.849-.2a1.623,1.623,0,0,0-.233-3.238" transform="translate(0 24.125)"/><path class="d" d="M316.023,72.906l-20.942,21.6c-7.416,7.65-14.87,15.336-21.745,23.58-6.837,8.2-13.009,16.823-20.02,24.6-3.231,3.586-6.795,7.225-10.044,11.142a50.009,50.009,0,0,0-8.123,12.853l1.5.613.215-1.608-61.692-8.234c-30.67-4.092-61.86-7.818-92.914-7.884l0,1.622,1.237,1.05q27.861-32.755,58.6-62.913a1.622,1.622,0,1,0-2.271-2.316q-30.8,30.217-58.8,63.127a1.622,1.622,0,0,0,1.232,2.674c30.8.065,61.853,3.767,92.491,7.857q30.848,4.115,61.694,8.234a1.624,1.624,0,0,0,1.718-1,46.788,46.788,0,0,1,7.613-12.006c3.135-3.78,6.666-7.389,9.959-11.042,7.172-7.964,13.364-16.622,20.1-24.7,6.772-8.121,14.166-15.751,21.584-23.4l20.942-21.6a1.623,1.623,0,1,0-2.33-2.258" transform="translate(35.864 32.208)"/><path class="d" d="M233.284,143.306a106.163,106.163,0,0,0-1.452,15.771,55.3,55.3,0,0,0,.543,7.889c.535,3.71,1.484,7.24,2.135,10.716a70.165,70.165,0,0,1,1.183,10.821,9.694,9.694,0,0,0,.542,3.008,5.943,5.943,0,0,0,.793,1.49,4.634,4.634,0,0,0,1.352,1.237l.834-1.393-.136-1.617c-2.732.227-5.469.327-8.209.327a203.892,203.892,0,0,1-24.252-1.833q-56.188-6.749-111.984-16.368a59.7,59.7,0,0,0-10.268-1.141c-.256,0-.513,0-.77.009l.036,1.622,1.586-.342a50.847,50.847,0,0,1-.967-10.745c0-3.244.169-6.541.272-9.856q.111-3.58.111-7.111c0-6.162-.253-12.259-.76-18.479a1.623,1.623,0,0,0-3.235.264c.5,6.136.75,12.141.75,18.214q0,3.485-.11,7.012c-.1,3.271-.273,6.6-.273,9.956a54.015,54.015,0,0,0,1.039,11.428,1.622,1.622,0,0,0,1.625,1.28c.233,0,.464-.007.695-.007a56.676,56.676,0,0,1,9.718,1.1q55.85,9.629,112.147,16.391A206.883,206.883,0,0,0,230.87,194.8c2.819,0,5.646-.1,8.479-.337a1.623,1.623,0,0,0,.7-3.01,1.422,1.422,0,0,1-.412-.386,3.238,3.238,0,0,1-.494-1.13,7.162,7.162,0,0,1-.2-1.537,73.563,73.563,0,0,0-1.235-11.32c-.689-3.637-1.62-7.121-2.115-10.576a52.057,52.057,0,0,1-.51-7.428,103.289,103.289,0,0,1,1.416-15.292,1.622,1.622,0,1,0-3.209-.48" transform="translate(35.865 55.962)"/><path class="d" d="M272.71,73.984q.1,6.586.2,13.172a74.05,74.05,0,0,0,.412,7.943,32.6,32.6,0,0,1,.4,3.884v.146h0a21.42,21.42,0,0,1-.387,3.2,22.275,22.275,0,0,0-.4,3.68,9.218,9.218,0,0,0,.345,2.588l1.557-.451-1.26-1.021c-8.781,10.832-17.171,21.311-24.917,33.012-3.811,5.76-7.316,11.645-11.2,17.2-3.9,5.568-8.219,10.872-12.564,16.2q-7.1,8.7-14.192,17.4c-6.707,8.234-14.849,15.615-21.142,24.68a1.622,1.622,0,0,0,2.667,1.848c6-8.664,14.065-16,20.99-24.478l14.191-17.4c4.346-5.331,8.722-10.694,12.71-16.393,3.975-5.682,7.493-11.592,11.249-17.265,7.64-11.544,15.958-21.938,24.732-32.759a1.618,1.618,0,0,0,.3-1.474,6.03,6.03,0,0,1-.217-1.686,19.146,19.146,0,0,1,.361-3.14,24.452,24.452,0,0,0,.431-3.687h0v-.192a34.235,34.235,0,0,0-.426-4.284,70.382,70.382,0,0,1-.387-7.592q-.1-6.586-.2-13.174a1.623,1.623,0,1,0-3.245.051" transform="translate(84.185 32.173)"/></g></g><g transform="matrix(-0.276, -0.961, 0.961, -0.276, 23.101, 1085)"><g class="f"><path class="g" d="M278.452,36.065l.024-1.246L287.4,35c25.746.519,52.37,1.055,78.433-.8l.089,1.244c-26.12,1.862-52.772,1.325-78.548.805Z" transform="translate(226.413 27.804)"/><path class="g" d="M163.741,60.752l-.4-1.184c5.84-1.955,11.934-3.824,18.111-5.555,40.572-11.357,84.87-17.489,139.41-19.3,9.055-.3,18.982-.408,30.352-.326l-.009,1.247c-11.352-.082-21.264.025-30.3.325-54.437,1.806-98.642,7.923-139.115,19.255-6.157,1.722-12.231,3.586-18.053,5.535" transform="translate(132.819 27.941)"/><path class="g" d="M110.712,103.351l-.878-.888c21.5-21.228,49.636-38.576,83.639-51.558l.446,1.166c-33.842,12.92-61.836,30.174-83.207,51.28" transform="translate(89.307 41.392)"/><path class="g" d="M80.786,165.852,79.6,165.47c9.8-30.422,22.454-55.322,38.7-76.122l.983.767c-16.149,20.684-28.741,45.457-38.491,75.737" transform="translate(64.722 72.65)"/><path class="g" d="M69.347,192.82c2.4-14.255,4.569-25.9,6.845-36.652l1.22.257c-2.27,10.734-4.442,22.365-6.834,36.6Z" transform="translate(56.387 126.982)"/><path class="g" d="M231.434,44.615l-.109-1.242c13.6-1.177,27.576-1.993,42.717-2.495,20.02-.664,40.407-.254,60.123.145,25.748.519,52.374,1.055,78.439-.8l.087,1.244c-26.122,1.862-52.774,1.325-78.551.805-19.7-.4-40.068-.809-60.058-.145-15.116.5-29.066,1.315-42.648,2.489" transform="translate(188.093 32.705)"/><path class="g" d="M167.411,64.684l-.4-1.18c6.409-2.183,13.111-4.259,19.921-6.166A486.875,486.875,0,0,1,254.5,43.712l.165,1.235a485.716,485.716,0,0,0-67.4,13.593c-6.788,1.9-13.47,3.969-19.854,6.145" transform="translate(135.796 35.543)"/><path class="g" d="M117.775,105.009l-.847-.914C137.549,85,163.857,69.209,195.122,57.15l.448,1.164c-31.115,12-57.289,27.712-77.8,46.695" transform="translate(95.076 46.469)"/><path class="g" d="M87.4,164.478l-1.173-.421c10.4-28.941,23.717-52.638,40.7-72.447l.946.812c-16.887,19.694-30.129,43.263-40.478,72.055" transform="translate(70.112 74.49)"/><path class="g" d="M75.044,193.964c2.567-14.842,5.024-27.086,7.729-38.534l1.215.288c-2.7,11.421-5.151,23.641-7.713,38.458Z" transform="translate(61.019 126.382)"/><path class="g" d="M1.7,152.04c1.246,4.109,4.382,7.167,7.269,9.738,7.049,6.275,15.557,11.838,27.579,18.033A281.423,281.423,0,0,0,107.34,205c17.66,3.726,33.187,12.906,48.856,22.789,2.567,1.619,5.144,3.313,7.635,4.95,3.6,2.362,7.314,4.807,11.058,7.06,1.644.992,3.311,1.953,4.981,2.915,1.4.805,2.807,1.619,4.215,2.455l-2.778-2.749c-4.33-4.288-8.8-8.714-12.851-13.4-1.973-2.283-3.889-4.671-5.742-6.982a138.912,138.912,0,0,0-10.191-11.776c-4.99-4.953-10.028-8.384-14.98-10.19-4.054-1.485-8.821-1.646-13.428-1.8-1.877-.065-3.815-.131-5.639-.288a194.739,194.739,0,0,1-38.355-7.5l-.794-.234c-11.441-3.362-24.4-7.171-34.759-13.716-2.58-1.632-5.079-3.5-7.492-5.314-4.879-3.657-9.923-7.439-15.749-9.256-1.064-.332-2.181-.606-3.264-.87a26.763,26.763,0,0,1-6.817-2.346,27.686,27.686,0,0,1-4.221-3.129A19.087,19.087,0,0,0,1.7,152.04m187.184,96.128c1.46.966,2.892,1.98,4.27,3.057a79.351,79.351,0,0,0,17.484,10.415c18.668,8.077,38.85,8.937,60.021,2.558-.457-.169-.916-.341-1.376-.513-9.211-3.436-19.651-7.33-26.847-13.856-2.256-2.045-4.473-4.141-6.616-6.168-8.618-8.146-16.759-15.843-27.717-20.947-13.189-6.143-28.134-8.83-42.585-11.435-3.137-.566-6.257-1.128-9.334-1.719l-3.235-.624c.152.147.3.3.455.45a139.56,139.56,0,0,1,10.286,11.878c1.846,2.3,3.755,4.683,5.711,6.946,4.021,4.647,8.473,9.056,12.777,13.319Zm38.518,19.98a83.438,83.438,0,0,1-17.259-5.363,80.5,80.5,0,0,1-17.756-10.578c-1.369-1.068-2.794-2.076-4.252-3.039l-.007.007-.034-.034c-2.888-1.909-5.9-3.644-8.844-5.343-1.675-.966-3.351-1.931-5-2.926-3.762-2.266-7.492-4.718-11.1-7.087-2.488-1.634-5.06-3.325-7.615-4.937-15.571-9.822-30.992-18.942-48.448-22.624a282.631,282.631,0,0,1-71.11-25.3c-12.121-6.246-20.706-11.863-27.837-18.213C4.861,159.793,1.276,156.263.2,151.25l-.2-.965.959.227c2.7.64,4.821,2.43,6.87,4.161a26.854,26.854,0,0,0,4.029,3,25.431,25.431,0,0,0,6.505,2.221c1.1.27,2.234.549,3.336.892,6.03,1.882,11.162,5.728,16.126,9.45,2.4,1.795,4.87,3.652,7.41,5.256,10.208,6.453,23.083,10.235,34.442,13.573l.8.236a193.359,193.359,0,0,0,38.112,7.448c1.79.154,3.626.218,5.572.285,4.707.16,9.57.326,13.816,1.877a41.319,41.319,0,0,1,13.272,8.433l5.173,1c3.073.591,6.186,1.151,9.321,1.717,14.527,2.618,29.552,5.32,42.889,11.531,11.142,5.191,19.353,12.953,28.045,21.172,2.139,2.022,4.351,4.114,6.6,6.15,7.019,6.364,17.341,10.215,26.444,13.613q1.569.582,3.084,1.155l1.674.635-1.7.544c-15.712,5.011-30.908,6.11-45.37,3.3" transform="translate(0 122.199)"/><path class="g" d="M110.448,228.358l-.934-.827c8.683-9.8,14.463-20.842,16.715-31.934,4.353-21.444,6.466-43.085-7.45-56.119l.852-.91c14.363,13.453,12.246,35.479,7.82,57.276-2.3,11.308-8.175,22.551-17,32.515" transform="translate(89.047 112.671)"/><path class="g" d="M108.048,225.229l-.234-.145c-15.1-9.348-26.95-17.821-37.287-26.662-4.825-4.123-10.975-9.724-15.77-16.47q-.664-.933-1.293-1.889l1.041-.687c.412.627.834,1.244,1.267,1.855,4.72,6.634,10.8,12.166,15.564,16.244,10.235,8.754,21.964,17.147,36.9,26.4a99.249,99.249,0,0,0,20.74-8.746l.607,1.09a100.35,100.35,0,0,1-21.27,8.931Z" transform="translate(43.472 145.852)"/><path class="g" d="M54.311,192.571q-.737-1.567-1.432-3.155c-6.273-14.266-8.667-27.168-7.116-38.353l1.235.17c-1.518,10.953.845,23.63,7.024,37.68q.688,1.572,1.418,3.128Z" transform="translate(36.838 122.831)"/><path class="g" d="M76.952,176.924q-1.694-.329-3.38-.676c-11-2.274-22.12-5.559-28.925-14.14a26.729,26.729,0,0,1-.847-31.055l1.019.722a25.437,25.437,0,0,0,.805,29.557c6.556,8.271,17.429,11.47,28.2,13.694,5.4,1.115,10.893,2.089,16.331,2.9l-.183,1.233c-4.33-.644-8.7-1.392-13.022-2.234" transform="translate(31.906 106.56)"/><path class="g" d="M67.508,159.071l-.553-1.117c2.9-1.434,5.78-1.664,8.828-1.909.676-.054,1.36-.109,2.051-.178l.792-.082.134,1.238-.8.083c-.7.071-1.389.127-2.074.181-2.926.234-5.69.455-8.375,1.782" transform="translate(54.442 126.672)"/><path class="g" d="M73.524,157.793l-.132-1.24c3.706-.4,7.448-.972,11.122-1.71l.245,1.224c-3.711.745-7.49,1.325-11.234,1.726" transform="translate(59.676 125.905)"/><path class="g" d="M79.772,174.267l-.245-1.224a124.4,124.4,0,0,0,22.637-6.841c12.706-5.2,24.562-12.6,36.028-19.752,6.553-4.087,12.184-7.961,14.735-13.99l1.15.486c-2.694,6.364-8.487,10.36-15.225,14.563-11.51,7.18-23.413,14.6-36.215,19.848a126.062,126.062,0,0,1-22.865,6.91" transform="translate(64.664 107.705)"/><path class="g" d="M42.511,136.082l-.789-.966a41.028,41.028,0,0,1,22.39-8.7c8.275-.687,16.465.444,24.084,1.768,8.2,1.425,14.929,3.017,21.154,6.146,5.04,2.538,11.111,1.588,16.983.671,1.133-.178,2.257-.354,3.363-.5a214.452,214.452,0,0,1,50.113-.519c.207.02.45.034.705.053a6.382,6.382,0,0,1,3.36.8,2.794,2.794,0,0,1,.819,3.565l-1.052-.671a1.591,1.591,0,0,0-.551-1.922,6.094,6.094,0,0,0-2.653-.529c-.277-.016-.535-.033-.754-.056a213.245,213.245,0,0,0-49.821.515c-1.1.149-2.212.323-3.338.5-6.065.948-12.333,1.927-17.738-.791-6.085-3.059-12.71-4.623-20.805-6.03-7.535-1.309-15.631-2.43-23.764-1.753a39.759,39.759,0,0,0-21.707,8.418" transform="translate(33.925 102.625)"/><path class="g" d="M140.488,146.73q-.631-.122-1.284-.257c-14.391-2.952-28.62-9.519-42.291-19.525C84.827,118.1,74.819,107.053,65.142,96.369c-4.194-4.629-8.529-9.417-12.993-13.983-4.065-4.157-8.487-8.583-13.519-13.529q-3.549-3.484-7.118-6.95c-.219-.212-.647-.7-1.182-1.3-1.021-1.155-3.731-4.219-4.439-4.386L25.9,55.6l-.067-.622h0c3.028-.319,4.408-2.06,6.005-4.076A19.232,19.232,0,0,1,34.85,47.67c2.944-2.364,6.913-3.862,12.483-4.71a74.965,74.965,0,0,1,44.807,7.312c6.95,3.452,13.412,7.954,19.661,12.306,3.76,2.62,7.65,5.329,11.6,7.775,3.566,2.21,7.31,4.286,10.933,6.293,6.389,3.543,13,7.205,18.894,11.747,5.869,4.518,13.538,12.032,16.742,22.162l-1.189.377c-3.108-9.822-10.585-17.141-16.313-21.551-5.826-4.484-12.393-8.125-18.74-11.644-3.635-2.016-7.392-4.1-10.986-6.324-3.976-2.464-7.878-5.182-11.655-7.811-6.21-4.328-12.636-8.8-19.5-12.211a73.7,73.7,0,0,0-44.064-7.2c-5.347.814-9.124,2.23-11.89,4.451a18.262,18.262,0,0,0-2.818,3.037c-1.354,1.708-2.747,3.467-5.233,4.219a48.423,48.423,0,0,1,3.682,3.88c.506.573.91,1.032,1.117,1.231q3.571,3.47,7.124,6.957c5.039,4.952,9.464,9.383,13.537,13.548,4.48,4.582,8.824,9.377,13.025,14.017,9.635,10.638,19.6,21.638,31.583,30.408,13.526,9.9,27.59,16.4,41.8,19.31,3.624.745,6.661,1.271,10.063.762l.185,1.235a26.145,26.145,0,0,1-9.214-.517" transform="translate(21.003 34.261)"/><path class="g" d="M108.447,97.564a14.134,14.134,0,0,1,6.078,2.749c3.637,2.87,6.221,6.8,8.765,10.915,4.8,7.764,9.417,15.832,13.883,23.636,10.106,17.658,20.555,35.918,33.766,51.752.528.633,1.119,1.378,1.784,2.217,5,6.292,14.383,18.115,32.107,25.995a75.64,75.64,0,0,1-19.373-17.3c-8.87-11.029-15.007-23.9-19.841-35.035-4.647-10.7-8.884-21.741-12.594-32.806q-.68-2.021-1.345-4.051c-2.787-8.449-5.668-17.185-10.177-24.948-5.885-10.132-14-17.127-22.851-19.7-3.274-.956-5.954-1.041-8.192-.27-2.867.988-5.318,3.57-6.723,7.089a37.415,37.415,0,0,0-1.891,9.941,15.2,15.2,0,0,1,6.605-.18m109.6,123.147c-27.131-6.955-40.079-23.264-46.3-31.1-.658-.829-1.246-1.567-1.766-2.192C156.7,171.5,146.222,153.187,136.09,135.482c-4.46-7.795-9.075-15.852-13.861-23.6-2.484-4.016-5-7.847-8.476-10.592a13.6,13.6,0,0,0-12.427-2.105l-.9.286.109-1.164c.339-3.6.72-7.669,2.04-10.969,1.539-3.856,4.264-6.7,7.475-7.807,2.491-.859,5.416-.772,8.948.252,9.16,2.663,17.533,9.863,23.58,20.272,4.574,7.876,7.477,16.673,10.282,25.184q.669,2.026,1.342,4.047c3.7,11.029,7.925,22.033,12.558,32.7,4.8,11.058,10.891,23.835,19.669,34.75,6.411,7.972,17.159,18.4,31.952,22.765Z" transform="translate(81.658 64.193)"/><path class="g" d="M204.843,127.5a1.933,1.933,0,0,1-1.3-.865c-1.788-2.81-4.573-4.64-7.523-6.578a36.86,36.86,0,0,1-5.945-4.507,36,36,0,0,1-5.316-7.524c-.45-.769-.9-1.538-1.363-2.3-2.421-3.934-5.173-6.558-8.183-7.795l-.47-.194.094-.5c.992-5.22.428-11.064-1.674-17.366A106.029,106.029,0,0,0,165.65,63.7c-5.062-9.459-10.96-20.51-16.86-31.559s-11.8-22.1-16.858-31.557l1.1-.587c5.062,9.459,10.96,20.508,16.86,31.557s11.8,22.1,16.858,31.557a107.075,107.075,0,0,1,7.6,16.365,36.159,36.159,0,0,1,1.8,17.5c3.075,1.407,5.867,4.127,8.306,8.1.47.762.923,1.539,1.376,2.315a35.055,35.055,0,0,0,5.124,7.272,35.93,35.93,0,0,0,5.746,4.348c2.93,1.926,5.962,3.915,7.893,6.951a.677.677,0,0,0,.537.317,2.872,2.872,0,0,0,2.013-.711,4.027,4.027,0,0,0,1.093-3.03c-.016-3.537-2.3-6.638-4.509-9.637l-.283-.386A232.115,232.115,0,0,1,189.413,90c-3.039-5.32-6.181-10.819-7.921-16.858-.555-1.927-.968-3.916-1.367-5.84a56.772,56.772,0,0,0-1.993-7.764c-2.072-5.737-5.942-10.614-9.68-15.333-2.584-3.258-4.281-7.349-5.923-11.3a51.958,51.958,0,0,0-4.982-9.967c-1.336-1.9-2.836-3.751-4.288-5.546-3.015-3.733-6.136-7.6-8.036-12.113l1.148-.484c1.833,4.357,4.9,8.146,7.86,11.812,1.463,1.811,2.975,3.682,4.337,5.613a53.029,53.029,0,0,1,5.115,10.206c1.608,3.876,3.273,7.883,5.748,11.007,3.8,4.8,7.735,9.758,9.876,15.683a58.013,58.013,0,0,1,2.043,7.934c.393,1.9.8,3.867,1.342,5.748,1.7,5.9,4.8,11.332,7.805,16.586a231.479,231.479,0,0,0,13.954,22.4l.285.384c2.217,3.012,4.732,6.426,4.75,10.371a5.09,5.09,0,0,1-1.527,3.98,4.077,4.077,0,0,1-3.008,1c-.036-.005-.073-.011-.107-.018" transform="translate(107.276)"/><path class="g" d="M169.214,36.595a1.231,1.231,0,0,0-.475,0,2.537,2.537,0,0,0-1.371.93,10.2,10.2,0,0,0-1.639,3.739c-.335,1.169-.707,2.33-1.079,3.492a61.577,61.577,0,0,0-1.922,6.912c-.3,1.516,1.782,5.5,2.66,6.665,2.629-1.229,5.8-3.989,6.6-6.418a13.8,13.8,0,0,0-.111-8.436c-.2-.624-.43-1.238-.664-1.853a18.955,18.955,0,0,1-1.139-3.775l-.02-.134a2.2,2.2,0,0,0-.165-.671.954.954,0,0,0-.68-.448m-4.1,23.21-.29-.245c-.892-.752-3.76-5.884-3.322-8.134a63.59,63.59,0,0,1,1.956-7.053c.368-1.15.736-2.3,1.07-3.456a11.272,11.272,0,0,1,1.875-4.19,3.7,3.7,0,0,1,2.1-1.36,2.34,2.34,0,0,1,2.495,1.1,3.282,3.282,0,0,1,.292,1.066l.02.125a17.73,17.73,0,0,0,1.07,3.525c.243.636.482,1.273.689,1.92a15.082,15.082,0,0,1,.105,9.207c-.988,2.97-4.77,6.128-7.709,7.35Z" transform="translate(131.284 28.723)"/><path class="g" d="M188.862,162.887a31.062,31.062,0,0,1-11.655-4.513,24.325,24.325,0,0,1-8.206-10.5c-3.583-8.319-3.728-17.212-3.864-25.813-.054-3.372-.111-6.861-.372-10.264-.172-2.239-.491-4.533-.8-6.752a69.008,69.008,0,0,1-.937-11.337,59.685,59.685,0,0,1,.923-7.845,51.844,51.844,0,0,0,.919-8.614,25.6,25.6,0,0,0-7.314-17.685l.888-.878a26.864,26.864,0,0,1,7.673,18.554,52.981,52.981,0,0,1-.936,8.824,58.9,58.9,0,0,0-.908,7.68,68.149,68.149,0,0,0,.928,11.129c.308,2.239.629,4.553.805,6.828.267,3.443.321,6.95.375,10.34.136,8.48.276,17.246,3.762,25.338a23.1,23.1,0,0,0,7.773,9.974c6.027,4.192,15.5,5.394,21.781,5.153a13.011,13.011,0,0,0,5.146-1.079c6.683-3.155,9.174-11.887,11.178-18.9.279-.977.549-1.922.821-2.821a4.257,4.257,0,0,0-.611-4.446c-1.01-1.77-2-3.563-2.992-5.361-4.484-8.119-9.12-16.517-15.789-23.068A114.935,114.935,0,0,1,188.518,96.5,121.626,121.626,0,0,1,179.1,83.583c-1.451-2.406-2.745-4.941-4-7.39l-2.827-5.53,1.11-.569L176.2,75.6c1.255,2.453,2.538,4.968,3.967,7.336a120.153,120.153,0,0,0,9.292,12.743,114.807,114.807,0,0,0,8.866,10.253c6.8,6.679,11.481,15.158,16.006,23.357.99,1.793,1.978,3.581,2.983,5.345a5.42,5.42,0,0,1,.722,5.425c-.27.894-.538,1.833-.816,2.8-2.071,7.258-4.649,16.291-11.843,19.689a14.177,14.177,0,0,1-5.632,1.2,48.855,48.855,0,0,1-10.886-.863" transform="translate(128.113 47.717)"/><path class="g" d="M222.416,45.142a67.456,67.456,0,0,1,2.221,18.124,105.874,105.874,0,0,1-1.472,13.316l-13.1,85.113c-2.263,14.643-4.4,28.486-.241,42.28a21.739,21.739,0,0,0,10.708-9.76c1.92-3.623,2.783-7.8,3.5-11.771,1.92-10.61,3.2-21.5,4.435-32.029a144.168,144.168,0,0,1,5.947-27.231,107.607,107.607,0,0,1,6.413-14.71c2.865-5.762,5.826-11.72,7.314-18.033l.132-.568c3.3-13.99,6.707-28.455,3.294-42.26-.611-2.475-2.535-8.275-7.124-8.766a9.642,9.642,0,0,0-4.691,1.019c-1.237.533-2.448,1.111-3.648,1.684-4.5,2.15-8.765,4.19-13.689,3.592M209.03,205.623l-.2-.629c-4.515-14.287-2.321-28.471,0-43.489l13.1-85.113a104.173,104.173,0,0,0,1.46-13.156,67.229,67.229,0,0,0-2.415-18.7l-.247-.952.966.183c4.932.93,9.276-1.146,13.874-3.343,1.213-.582,2.44-1.168,3.693-1.7a10.717,10.717,0,0,1,5.312-1.115c5.383.564,7.53,6.98,8.2,9.707,3.485,14.1.042,28.711-3.291,42.846l-.132.566c-1.519,6.455-4.513,12.478-7.408,18.3a106.779,106.779,0,0,0-6.346,14.538,142.942,142.942,0,0,0-5.893,27c-1.24,10.547-2.518,21.455-4.448,32.1-.736,4.067-1.623,8.353-3.626,12.133a22.974,22.974,0,0,1-11.985,10.589Z" transform="translate(167.668 30.548)"/><path class="g" d="M219.2,63.119c-4.119-5.066-8.442-10.353-12.764-15.636-4.264-5.216-8.529-10.433-12.6-15.431C188.6,25.6,183.17,18.924,180.021,10.992l1.159-.459c3.082,7.753,8.445,14.351,13.631,20.729,4.067,5,8.331,10.213,12.6,15.43,4.322,5.285,8.645,10.572,12.764,15.64Z" transform="translate(146.377 8.565)"/><path class="g" d="M214.1,56.42l-1.077-.626a8.7,8.7,0,0,0,.816-6.116,21.351,21.351,0,0,0-2.8-5.169l-4.364-6.54,1.971.881a28.774,28.774,0,0,1,13.446,13.024,81.01,81.01,0,0,0-1.128-13.16,31.435,31.435,0,0,0-6.273-14.327A38.489,38.489,0,0,0,205.846,17l.682-1.046a39.67,39.67,0,0,1,9.124,7.637,32.628,32.628,0,0,1,6.536,14.886,93.588,93.588,0,0,1,1.2,15.493l.029,1.327-1.048.223-.221-.5a28.12,28.12,0,0,0-11.916-13.965l1.842,2.76a22.265,22.265,0,0,1,2.954,5.481,9.944,9.944,0,0,1-.926,7.122" transform="translate(167.376 12.973)"/><path class="g" d="M285.9,50.45c-.033-.005-.063-.013-.094-.02-2.294-.484-4.065-2-5.778-3.474a25.893,25.893,0,0,0-2.665-2.094,3.02,3.02,0,0,0-1.385-.586c-.939-.076-1.748.673-2.607,1.467a12.617,12.617,0,0,1-1.291,1.093,2.144,2.144,0,0,1-1.164.446c-.573.016-1.392-.277-1.994-1.757-1.345-3.3-3.492-14.886-3.429-18.5l1.246.02c-.06,3.438,2.062,14.886,3.338,18.015.252.62.553.974.81.979a1.035,1.035,0,0,0,.475-.221,11.563,11.563,0,0,0,1.162-.986c.97-.9,2.069-1.916,3.556-1.795a4.232,4.232,0,0,1,1.965.783,26.789,26.789,0,0,1,2.8,2.194c1.668,1.431,3.244,2.781,5.224,3.2a2.618,2.618,0,0,0,2.424-.457,3.294,3.294,0,0,0,.5-2.3c0-.187,0-.373,0-.555.082-3.679-2.758-9.987-4.453-13.756a29.306,29.306,0,0,1-1.231-2.932l1.206-.328c.109.412.6,1.494,1.162,2.749,1.739,3.864,4.652,10.333,4.565,14.295l-.005.526a4.247,4.247,0,0,1-.856,3.173,3.747,3.747,0,0,1-3.479.827" transform="translate(215.871 21.971)"/><path class="g" d="M260.239,142.245c-1.285-17.264-1.833-35.06-1.628-52.894a125.644,125.644,0,0,1,1.273-18.92c1.715-10.378,5.764-20.205,9.677-29.711l1.155.475c-3.889,9.441-7.909,19.2-9.6,29.44a124.227,124.227,0,0,0-1.256,18.731c-.207,17.8.341,35.559,1.623,52.785Z" transform="translate(210.246 33.11)"/><path class="g" d="M275.335,69.61c-3.362,11.932-5.824,24.278-8.2,36.224-.671,3.36-1.422,6.757-2.149,10.043-1.356,6.143-2.761,12.5-3.682,18.824a32.174,32.174,0,0,0-.174,10.832,18.824,18.824,0,0,0,18.224,14.717c2.246-.022,3.871-.578,4.834-1.648a7.678,7.678,0,0,0,1.454-3.534c3.126-13.965,3.233-29.175.317-45.208A306.84,306.84,0,0,0,275.335,69.61m.335,91.548A20.191,20.191,0,0,1,259.9,145.775a33.181,33.181,0,0,1,.165-11.254c.926-6.371,2.335-12.748,3.7-18.914.723-3.28,1.472-6.67,2.141-10.016,2.433-12.206,4.95-24.829,8.429-37.029q.443-1.553.9-3.113c2.334-8,4.747-16.264,3.88-24.511l1.24-.131c.892,8.493-1.556,16.88-3.924,24.992-.161.557-.325,1.111-.486,1.668,4.179,12.781,8.427,26.733,11.234,42.169,2.944,16.2,2.836,31.575-.326,45.7a8.784,8.784,0,0,1-1.746,4.094c-1.2,1.344-3.137,2.036-5.748,2.065a18.441,18.441,0,0,1-3.691-.341" transform="translate(210.989 33.181)"/><path class="g" d="M293.228,145.363a3.208,3.208,0,0,1-1.538-.783c-1.392-1.244-1.982-3.615-2.069-5.419-.39-8.106.914-16.878,3.98-26.818a125.939,125.939,0,0,1,47.061-65.107c.569-.406,1.177-.859,1.809-1.336,3.021-2.265,6.779-5.084,10.273-5.282l.071,1.246c-3.119.178-6.709,2.87-9.6,5.035-.642.482-1.257.943-1.835,1.354a124.685,124.685,0,0,0-46.592,64.458c-3.024,9.8-4.308,18.43-3.927,26.388.073,1.483.548,3.563,1.655,4.549a1.9,1.9,0,0,0,1.461.52c3.521-.232,7.06-.321,10.485-.406,9.463-.238,18.4-.461,27.269-3.47a76.1,76.1,0,0,0,13.979-5.844c5.735-3.327,10.534-8.108,14.075-11.9,7.374-7.9,12.808-15.455,16.614-23.092a58.065,58.065,0,0,0,6.5-27.371c-.056-1.855-.564-8-4.727-9.169l-.466-.129.011-.484c.054-2.665,1.338-6.027,2.578-9.28,1.286-3.362,2.613-6.839,2.547-9.428l1.247-.031c.071,2.834-1.3,6.429-2.629,9.9-1.13,2.959-2.3,6.014-2.475,8.4,4.415,1.63,5.082,7.613,5.16,10.175a59.349,59.349,0,0,1-6.631,27.967c-3.858,7.746-9.361,15.4-16.82,23.386-3.6,3.856-8.484,8.719-14.358,12.132a77.194,77.194,0,0,1-14.206,5.945c-9.049,3.07-18.078,3.3-27.639,3.534-3.41.087-6.939.176-10.433.406a3.3,3.3,0,0,1-.839-.051" transform="translate(235.441 33.027)"/><path class="g" d="M403.458,114.01a8.7,8.7,0,0,1-1.4-.4c-2.781-1.059-4.7-3.372-6.553-5.612-.45-.548-.9-1.093-1.362-1.617-.538-.609-1.1-1.2-1.666-1.79a29.1,29.1,0,0,1-3.523-4.2,25.329,25.329,0,0,1-2.984-7.715c-3.249-13.094-2.266-32.045.02-44.115l1.227.234c-2.265,11.938-3.24,30.667-.038,43.58A24.261,24.261,0,0,0,390,99.717a28.281,28.281,0,0,0,3.38,4.016c.575.6,1.151,1.2,1.7,1.826.468.535.928,1.09,1.385,1.645,1.75,2.114,3.561,4.3,6.032,5.244,3.055,1.157,6.886.216,9.787-2.4s4.52-6.357,5.6-9.319c3.483-9.506,4.569-19.913,5.175-28.845.372-5.468.544-11.216-1.777-16.077l1.126-.54c2.451,5.135,2.281,11.067,1.9,16.7-.615,9.018-1.713,19.534-5.249,29.189-1.135,3.1-2.834,7.015-5.94,9.816a11.492,11.492,0,0,1-9.662,3.039" transform="translate(312.143 39.488)"/><path class="g" d="M422.23,85.394a3.042,3.042,0,0,1-1.947-1.991,31.589,31.589,0,0,1-1.623-6.848c-.138-.867-.277-1.735-.442-2.593a40.065,40.065,0,0,0-7.49-16.7l.992-.758a41.35,41.35,0,0,1,7.724,17.225c.169.87.308,1.751.448,2.633a30.856,30.856,0,0,0,1.548,6.582c.277.7.829,1.353,1.237,1.206a1.372,1.372,0,0,0,.477-.439c1.909-2.43,2.676-5.439,3.487-8.625.31-1.211.627-2.462,1.012-3.666,2.025-6.333,5.989-11.7,9.823-16.893l1,.742C434.7,60.375,430.8,65.658,428.839,71.8c-.374,1.168-.687,2.4-.99,3.594-.807,3.171-1.643,6.451-3.717,9.087a2.392,2.392,0,0,1-1.024.839,1.606,1.606,0,0,1-.878.076" transform="translate(333.968 44.334)"/><path class="g" d="M441.765,180.87a7.442,7.442,0,0,1-5.216-3.43c-2.881-5.118,1.9-11.667,5.392-16.45.613-.841,1.177-1.614,1.635-2.3a98.853,98.853,0,0,0,6.246-11.363q.585-1.18,1.169-2.359a244.3,244.3,0,0,1,26.267-41.431c7.47-9.513,24.143-27.646,39.243-35.27l.564,1.113c-14.906,7.526-31.418,25.5-38.826,34.93a242.99,242.99,0,0,0-26.132,41.217q-.585,1.172-1.166,2.353a99.508,99.508,0,0,1-6.33,11.5c-.466.694-1.039,1.481-1.663,2.335-3.293,4.509-7.8,10.685-5.314,15.1,1.151,2.049,3.71,2.885,5.715,2.979,3.284.158,6.511-1.126,9.631-2.364l1.017-.4c3.356-1.318,6.832-2.471,10.192-3.588,4.5-1.5,9.16-3.042,13.555-4.99,8.819-3.907,17.6-9.856,26.854-18.18,10.041-9.038,22.251-24.024,23.395-44.1.237-4.177-.805-9.091-1.909-14.295-1.483-7-3.017-14.238-1.839-21.03l1.229.214c-1.137,6.554.372,13.674,1.831,20.557,1.12,5.289,2.179,10.282,1.931,14.625-1.166,20.5-13.589,35.758-23.8,44.953-9.35,8.415-18.24,14.432-27.182,18.394-4.451,1.973-9.134,3.528-13.665,5.033-3.347,1.11-6.806,2.259-10.134,3.565l-1.01.4c-3.244,1.287-6.6,2.62-10.152,2.451a10.819,10.819,0,0,1-1.525-.183" transform="translate(354.244 55.511)"/><path class="g" d="M325.958,81.4l-.994-.756c2.821-3.693,6.511-6.609,10.079-9.43,1.4-1.106,2.845-2.248,4.215-3.418,6.043-5.173,9.223-10.2,9.722-15.377l1.242.121c-.529,5.51-3.851,10.81-10.155,16.2-1.385,1.188-2.841,2.337-4.252,3.45-3.508,2.772-7.136,5.639-9.858,9.207" transform="translate(264.232 42.626)"/><path class="g" d="M116.339,102.06c-.5-.78-.927-1.6-1.34-2.4a26.974,26.974,0,0,0-1.416-2.5c-1.9-2.848-5.122-5.222-9.588-7.053-1.994-.818-4.094-1.49-6.125-2.143C96,87.365,94.058,86.741,92.188,86a45.738,45.738,0,0,1-13.219-8.009l.816-.943a44.566,44.566,0,0,0,12.862,7.793c1.831.722,3.75,1.338,5.6,1.933,2.052.658,4.177,1.34,6.215,2.176,4.767,1.955,8.088,4.413,10.153,7.517a28.048,28.048,0,0,1,1.487,2.618c.4.771.814,1.567,1.284,2.3Z" transform="translate(64.211 62.652)"/><path class="g" d="M68.879,156.135a37.089,37.089,0,0,1,5.1-12.951,24.2,24.2,0,0,1,4.944-5.8c2.781-2.292,6.235-3.724,9.285-4.988a9.358,9.358,0,0,1,3.633-.943l-.011,1.246a8.422,8.422,0,0,0-3.144.85,34.509,34.509,0,0,0-8.969,4.8,22.831,22.831,0,0,0-4.683,5.5,35.823,35.823,0,0,0-4.933,12.51Z" transform="translate(56.006 106.886)"/><path class="g" d="M459.714,129.956l-1.048-.678a94.872,94.872,0,0,1,16.958-19.647c3.139-2.763,6.507-5.351,9.762-7.853a151.975,151.975,0,0,0,11.847-9.755,25.515,25.515,0,0,0,5.671-7.1c1.719-3.546,1.991-7.762,2.232-11.482l1.246.082c-.248,3.833-.531,8.179-2.355,11.945a26.638,26.638,0,0,1-5.936,7.463,153.9,153.9,0,0,1-11.943,9.838c-3.242,2.489-6.591,5.064-9.7,7.8a93.439,93.439,0,0,0-16.733,19.388" transform="translate(372.947 59.716)"/></g></g><g transform="translate(1772.207 529.532) rotate(-95)"><g class="h"><path class="g" d="M153.485,145.571c-5.041-6.465-6.484-14.749-7.529-22.681-1.67-12.687-3.052-27.59-.625-41.947.779-4.609,2.155-10.506,5.905-15.234,3.919-4.938,9.984-7.547,15.45-6.655,4.373.717,7.837,3.416,11.188,6.026.818.638,1.634,1.274,2.458,1.875.958.7,1.948,1.367,2.936,2.032a43.148,43.148,0,0,1,6.367,4.885,35.612,35.612,0,0,1,6.568,9.91c8.482,17.312,12.44,43.89,12.527,61.261l-1.862.008c-.084-17.184-3.987-43.454-12.353-60.524a33.987,33.987,0,0,0-6.222-9.431,41.818,41.818,0,0,0-6.1-4.671c-1.009-.679-2.021-1.358-3-2.071-.841-.615-1.672-1.261-2.5-1.91-3.164-2.465-6.435-5.014-10.322-5.65-4.782-.795-10.145,1.562-13.648,5.978s-4.807,10.042-5.553,14.451c-2.39,14.138-1.02,28.887.633,41.451,1.014,7.7,2.4,15.728,7.18,21.847Z" transform="translate(84.41 34.509)"/><path class="g" d="M115.817,133.58l-1.68-.758c4.07-8.116,8.278-16.508,9.407-25.558.213-1.721.322-3.515.427-5.253.279-4.623.568-9.406,2.855-13.628a3.415,3.415,0,0,1,1.264-1.443c1.683-.96,3.566.255,4.679,1.9a43.4,43.4,0,0,1,4.325,9.069c.449,1.167.9,2.335,1.386,3.483A56.825,56.825,0,0,0,154.2,122.56l-1.236,1.321a58.608,58.608,0,0,1-16.213-21.833c-.495-1.166-.95-2.351-1.407-3.535a42.352,42.352,0,0,0-4.14-8.719c-.606-.893-1.6-1.661-2.156-1.343a1.945,1.945,0,0,0-.571.738c-2.106,3.889-2.371,8.278-2.652,12.923-.106,1.762-.216,3.585-.438,5.358-1.163,9.339-5.439,17.866-9.574,26.11" transform="translate(66.895 50.756)"/><path class="g" d="M30.2,176.532l-1.14-1.4c19.687-14.478,38.75-43.886,46.909-58.982a333.26,333.26,0,0,0,26.535-64.289c.349-1.188.692-2.381,1.036-3.57a135.54,135.54,0,0,1,6-17.7c.485-1.091,1.1-2.339,1.773-3.7,3.535-7.149,8.378-16.939,3.48-22.4-2.273-2.536-6.249-3.006-9.215-2.595-4.857.668-9.217,3.32-13.434,5.886l-1.369.83c-4.539,2.733-9.3,5.274-13.9,7.729-6.17,3.291-12.551,6.7-18.434,10.59-11.8,7.807-22.975,18.435-34.149,32.493C12.159,74.7-1.453,98.8,2.586,126.983c.841,5.865,3.765,12.406,6.863,19.334,4.165,9.321,8.474,18.955,8.681,28.705l-1.86.035c-.2-9.409-4.436-18.886-8.533-28.05-3.147-7.041-6.119-13.69-6.993-19.787C-3.383,98.446,10.464,73.9,22.805,58.373c11.3-14.21,22.6-24.964,34.57-32.88,5.957-3.941,12.379-7.367,18.587-10.681,4.579-2.444,9.315-4.972,13.815-7.68l1.359-.826C95.521,3.64,100.056.883,105.307.16c4.47-.619,8.554.577,10.9,3.2,5.672,6.329.536,16.714-3.213,24.294-.66,1.334-1.266,2.562-1.743,3.634a134.22,134.22,0,0,0-5.915,17.476c-.346,1.194-.688,2.389-1.04,3.581a335.1,335.1,0,0,1-26.667,64.621c-8.232,15.222-27.482,44.9-47.427,59.57" transform="translate(0 0)"/><path class="g" d="M9.744,138.093c-.726-5.393-1.551-11.5.049-17.222,1.285-4.592,4.041-8.625,6.571-11.969A220.308,220.308,0,0,1,31.053,92.02c4.035-4.332,8.206-8.812,11.981-13.45A130.721,130.721,0,0,0,62.018,47.132l1.727.658A132.453,132.453,0,0,1,44.506,79.648c-3.811,4.684-8.005,9.187-12.061,13.539a219.05,219.05,0,0,0-14.57,16.743c-2.43,3.213-5.077,7.079-6.284,11.393-1.507,5.385-.707,11.315,0,16.546Z" transform="translate(5.2 27.624)"/></g></g></g></svg>